<svg width="70" height="57" viewBox="0 0 70 57" fill="none" xmlns="http://www.w3.org/2000/svg">
<g filter="url(#filter0_d_26_1509)">
<path d="M49.9376 49L19.3126 49C15.2515 49 11.3567 47.3867 8.48508 44.5151C5.61343 41.6434 4.00015 37.7486 4.00015 33.6875L65.2501 33.6875C65.2501 37.7486 63.6368 41.6434 60.7652 44.5151C57.8936 47.3867 53.9988 49 49.9376 49Z" fill="#CC4900"/>
<path d="M62.1876 33.6875H43.8127V39.8125H62.1876V33.6875Z" fill="#E76400"/>
<path d="M46.875 33.6875H4C4.00001 37.7486 5.61329 41.6434 8.48494 44.5151C11.3566 47.3867 15.2514 49 19.3125 49H31.5625C35.6236 49 39.5184 47.3867 42.39 44.5151C45.2617 41.6434 46.875 37.7486 46.875 33.6875Z" fill="#EF7F00"/>
<path d="M49.9375 49V42.875C51.9745 42.8751 53.9538 42.1983 55.5644 40.951C57.1749 39.7037 58.3253 37.9567 58.8349 35.9844L64.7655 37.5156C63.9164 40.8027 61.9992 43.7144 59.3152 45.7932C56.6311 47.872 53.3324 49 49.9375 49Z" fill="#BF3C00"/>
<path d="M43.8125 33.6875H7.06253V39.8125H43.8125V33.6875Z" fill="#F59707"/>
<path d="M34.625 42.8751L7.06253 30.6251H62.1875L34.625 42.8751Z" fill="#FDBC34"/>
<path d="M54.3502 30.7563L34.0031 39.7994L35.2473 42.5988L55.5943 33.5556L54.3502 30.7563Z" fill="#FDAB00"/>
<path d="M59.125 21.4375H10.125C6.74225 21.4375 4 24.1798 4 27.5625V27.5625C4 30.9452 6.74225 33.6875 10.125 33.6875H59.125C62.5077 33.6875 65.25 30.9452 65.25 27.5625C65.25 24.1798 62.5077 21.4375 59.125 21.4375Z" fill="#8B2800"/>
<path d="M40.75 21.4375H10.125C6.74225 21.4375 4 24.1798 4 27.5625V27.5625C4 30.9452 6.74225 33.6875 10.125 33.6875H40.75C44.1327 33.6875 46.875 30.9452 46.875 27.5625C46.875 24.1798 44.1327 21.4375 40.75 21.4375Z" fill="#993B17"/>
<path d="M36.1563 30.625C43.7674 30.625 49.9375 27.8827 49.9375 24.5C49.9375 21.1173 43.7674 18.375 36.1563 18.375C28.5451 18.375 22.375 21.1173 22.375 24.5C22.375 27.8827 28.5451 30.625 36.1563 30.625Z" fill="#C11107"/>
<path d="M48.4062 30.625C56.0174 30.625 62.1875 27.1972 62.1875 22.9687C62.1875 18.7403 56.0174 15.3125 48.4062 15.3125C40.7951 15.3125 34.625 18.7403 34.625 22.9687C34.625 27.1972 40.7951 30.625 48.4062 30.625Z" fill="#C82E25"/>
<path d="M20.8438 27.5625C28.4549 27.5625 34.625 24.8202 34.625 21.4375C34.625 18.0548 28.4549 15.3125 20.8438 15.3125C13.2326 15.3125 7.06253 18.0548 7.06253 21.4375C7.06253 24.8202 13.2326 27.5625 20.8438 27.5625Z" fill="#C82E25"/>
<path d="M48.4063 27.5625C54.3261 27.5625 59.125 25.5058 59.125 22.9687C59.125 20.4317 54.3261 18.375 48.4063 18.375C42.4865 18.375 37.6875 20.4317 37.6875 22.9687C37.6875 25.5058 42.4865 27.5625 48.4063 27.5625Z" fill="#D2514A"/>
<path d="M7.06253 21.4375C7.06253 21.4375 7.06253 24.5 13.1875 24.5C19.3125 24.5 19.3125 27.5625 22.375 27.5625C25.4375 27.5625 25.4375 24.5 31.5625 24.5C37.6875 24.5 37.0915 27.5625 40.452 27.5625C43.8125 27.5625 43.8125 24.5 49.9375 24.5C56.0625 24.5 62.1875 24.5 62.1875 18.375H7.06253V21.4375Z" fill="#FEE3AA"/>
<path d="M22.375 21.4375C22.375 18.6223 22.9295 15.8346 24.0069 13.2337C25.0842 10.6328 26.6633 8.26955 28.6539 6.27889C30.6446 4.28824 33.0078 2.70917 35.6087 1.63183C38.2097 0.554497 40.9973 0 43.8125 0C46.6277 0 49.4154 0.554497 52.0163 1.63183C54.6172 2.70917 56.9805 4.28824 58.9711 6.27889C60.9618 8.26955 62.5408 10.6328 63.6182 13.2337C64.6955 15.8346 65.25 18.6223 65.25 21.4375H22.375Z" fill="#EF7F00"/>
<path d="M43.8125 12.25C50.578 12.25 56.0625 9.50774 56.0625 6.125C56.0625 2.74225 50.578 0 43.8125 0C37.047 0 31.5625 2.74225 31.5625 6.125C31.5625 9.50774 37.047 12.25 43.8125 12.25Z" fill="#E76400"/>
<path d="M48.4063 33.6875C46.4379 33.6887 44.4756 33.4685 42.5565 33.031C40.4514 33.4697 38.3066 33.6897 36.1563 33.6875C30.9719 33.6875 26.2929 32.542 23.196 30.5323C22.4304 30.5906 21.6468 30.625 20.8438 30.625C15.4845 30.625 10.6455 29.4137 7.56952 27.3008L9.30414 24.7766C11.8821 26.5471 16.0886 27.5625 20.8438 27.5625C21.7455 27.5625 22.6188 27.5146 23.4682 27.4354L24.0379 27.383L24.5015 27.7165C28.1427 30.3319 35.769 31.407 42.238 29.967L42.5879 29.8892L42.9348 29.973C44.7261 30.4077 46.563 30.6266 48.4063 30.625C53.6999 30.625 58.4432 28.9786 60.7864 26.3273L63.0803 28.355C60.1314 31.6941 54.645 33.6875 48.4063 33.6875Z" fill="#7D1A00"/>
<path d="M62.1875 15.3125H49.9375V21.4375H62.1875V15.3125Z" fill="#FDBC34"/>
<path d="M4.00002 21.4375C4.00002 15.7519 6.2586 10.2992 10.2789 6.2789C14.2992 2.25859 19.7519 0 25.4375 0C31.1231 0 36.5758 2.25859 40.5961 6.2789C44.6164 10.2992 46.875 15.7519 46.875 21.4375H4.00002Z" fill="#F59707"/>
<path d="M43.8125 15.3125H7.06253V21.4375H43.8125V15.3125Z" fill="#FDCF6D"/>
<path d="M25.4377 12.25C32.2032 12.25 37.6877 9.50774 37.6877 6.125C37.6877 2.74225 32.2032 0 25.4377 0C18.6722 0 13.1877 2.74225 13.1877 6.125C13.1877 9.50774 18.6722 12.25 25.4377 12.25Z" fill="#EF7F00"/>
<path d="M16.2502 9.1875C17.9416 9.1875 19.3127 8.50194 19.3127 7.65625C19.3127 6.81056 17.9416 6.125 16.2502 6.125C14.5588 6.125 13.1877 6.81056 13.1877 7.65625C13.1877 8.50194 14.5588 9.1875 16.2502 9.1875Z" fill="#FEE3AA"/>
<path d="M25.4375 3.0625C27.1289 3.0625 28.5 2.37694 28.5 1.53125C28.5 0.685564 27.1289 0 25.4375 0C23.7462 0 22.375 0.685564 22.375 1.53125C22.375 2.37694 23.7462 3.0625 25.4375 3.0625Z" fill="#FEE3AA"/>
<path d="M34.625 6.125C36.3164 6.125 37.6875 5.43944 37.6875 4.59375C37.6875 3.74806 36.3164 3.0625 34.625 3.0625C32.9337 3.0625 31.5625 3.74806 31.5625 4.59375C31.5625 5.43944 32.9337 6.125 34.625 6.125Z" fill="#FEE3AA"/>
<path d="M49.9375 6.125C51.6289 6.125 53 5.43944 53 4.59375C53 3.74806 51.6289 3.0625 49.9375 3.0625C48.2462 3.0625 46.875 3.74806 46.875 4.59375C46.875 5.43944 48.2462 6.125 49.9375 6.125Z" fill="#FDCF6D"/>
<path d="M40.75 3.0625C42.4414 3.0625 43.8125 2.37694 43.8125 1.53125C43.8125 0.685564 42.4414 0 40.75 0C39.0586 0 37.6875 0.685564 37.6875 1.53125C37.6875 2.37694 39.0586 3.0625 40.75 3.0625Z" fill="#FDCF6D"/>
</g>
<defs>
<filter id="filter0_d_26_1509" x="0" y="0" width="69.2501" height="57" filterUnits="userSpaceOnUse" color-interpolation-filters="sRGB">
<feFlood flood-opacity="0" result="BackgroundImageFix"/>
<feColorMatrix in="SourceAlpha" type="matrix" values="0 0 0 0 0 0 0 0 0 0 0 0 0 0 0 0 0 0 127 0" result="hardAlpha"/>
<feOffset dy="4"/>
<feGaussianBlur stdDeviation="2"/>
<feComposite in2="hardAlpha" operator="out"/>
<feColorMatrix type="matrix" values="0 0 0 0 0 0 0 0 0 0 0 0 0 0 0 0 0 0 0.25 0"/>
<feBlend mode="normal" in2="BackgroundImageFix" result="effect1_dropShadow_26_1509"/>
<feBlend mode="normal" in="SourceGraphic" in2="effect1_dropShadow_26_1509" result="shape"/>
</filter>
</defs>
</svg>
