<svg width="62" height="45" viewBox="0 0 62 45" fill="none" xmlns="http://www.w3.org/2000/svg">
<path d="M44.3874 0.122094C36.4868 -0.689708 37.2143 2.81249 30.9374 2.81249C25.3124 2.81249 25.3124 8.43749 19.6874 8.43749C14.0624 8.43749 14.0624 14.0625 8.43738 14.0625C5.98691 14.0625 4.07021 15.13 2.68726 16.3349C0.923132 17.872 -0.00012207 20.1602 -0.00012207 22.5V45H61.8749V19.6873C61.8749 9.67175 54.3505 1.14583 44.3874 0.122094Z" fill="#FEE3AA"/>
<path d="M61.875 33.7499H0V44.9999H61.875V33.7499Z" fill="#C99884"/>
<path d="M56.25 36.5625C54.2615 36.5625 53.2109 35.5119 52.4432 34.7443C51.7538 34.0549 51.416 33.75 50.625 33.75C49.834 33.75 49.4962 34.0549 48.8068 34.7443C48.0391 35.5119 46.9885 36.5625 45 36.5625C43.0115 36.5625 41.9609 35.5119 41.1932 34.7443C40.5038 34.0549 40.166 33.75 39.375 33.75C38.584 33.75 38.2462 34.0549 37.5568 34.7443C36.7891 35.5119 35.7385 36.5625 33.75 36.5625C31.7615 36.5625 30.7109 35.5119 29.9432 34.7443C29.2538 34.0549 28.916 33.75 28.125 33.75C27.334 33.75 26.9962 34.0549 26.3068 34.7443C25.5391 35.5119 24.4885 36.5625 22.5 36.5625C20.5115 36.5625 19.4609 35.5119 18.6932 34.7443C18.0038 34.0549 17.666 33.75 16.875 33.75C16.084 33.75 15.7462 34.0549 15.0568 34.7443C14.2891 35.5119 13.2385 36.5625 11.25 36.5625C9.26148 36.5625 8.21091 35.5119 7.44324 34.7443C6.75385 34.0549 6.41602 33.75 5.625 33.75C4.83399 33.75 4.49616 34.0549 3.80676 34.7443C3.03909 35.5119 1.98853 36.5625 0 36.5625V33.75C0.791016 33.75 1.12885 33.4451 1.81824 32.7557C2.58591 31.9881 3.63648 30.9375 5.625 30.9375C7.61353 30.9375 8.66409 31.9881 9.43176 32.7557C10.1212 33.4451 10.459 33.75 11.25 33.75C12.041 33.75 12.3788 33.4451 13.0682 32.7557C13.8359 31.9881 14.8865 30.9375 16.875 30.9375C18.8635 30.9375 19.9141 31.9881 20.6818 32.7557C21.3712 33.4451 21.709 33.75 22.5 33.75C23.291 33.75 23.6288 33.4451 24.3182 32.7557C25.0859 31.9881 26.1365 30.9375 28.125 30.9375C30.1135 30.9375 31.1641 31.9881 31.9318 32.7557C32.6212 33.4451 32.959 33.75 33.75 33.75C34.541 33.75 34.8788 33.4451 35.5682 32.7557C36.3359 31.9881 37.3865 30.9375 39.375 30.9375C41.3635 30.9375 42.4141 31.9881 43.1818 32.7557C43.8712 33.4451 44.209 33.75 45 33.75C45.791 33.75 46.1289 33.4451 46.8182 32.7557C47.5859 31.9881 48.6365 30.9375 50.625 30.9375C52.6135 30.9375 53.6641 31.9881 54.4318 32.7557C55.1212 33.4451 55.459 33.75 56.25 33.75C57.041 33.75 57.3788 33.4451 58.0682 32.7557C58.8359 31.9881 59.8865 30.9375 61.875 30.9375V33.75C61.084 33.75 60.7462 34.0549 60.0568 34.7443C59.2891 35.5119 58.2385 36.5625 56.25 36.5625Z" fill="#A34E2D"/>
<path d="M44.3874 0.122094C36.4868 -0.689708 37.2143 2.81249 30.9374 2.81249C25.3124 2.81249 25.3124 8.43749 19.6874 8.43749C14.0624 8.43749 14.0624 14.0625 8.43738 14.0625C5.98691 14.0625 4.07021 15.13 2.68726 16.3349C0.923132 17.872 -0.00012207 20.1602 -0.00012207 22.5V25.3125C1.9884 25.3125 3.03897 24.2619 3.80664 23.4943C4.49603 22.8049 4.83386 22.5 5.62488 22.5C6.41589 22.5 6.75373 22.8049 7.44312 23.4943C8.21079 24.2619 9.26135 25.3125 11.2499 25.3125C13.2384 25.3125 14.289 24.2619 15.0566 23.4943C15.746 22.8049 16.0839 22.5 16.8749 22.5C17.6659 22.5 18.0037 22.8049 18.6931 23.4943C19.4608 24.2619 20.5114 25.3125 22.4999 25.3125C24.4884 25.3125 25.539 24.2619 26.3066 23.4943C26.996 22.8049 27.3339 22.5 28.1249 22.5C28.9159 22.5 29.2537 22.8049 29.9431 23.4943C30.7108 24.2619 31.7614 25.3125 33.7499 25.3125C35.7384 25.3125 36.789 24.2619 37.5566 23.4943C38.246 22.8049 38.5839 22.5 39.3749 22.5C40.1659 22.5 40.5037 22.8049 41.1931 23.4943C41.9608 24.2619 43.0114 25.3125 44.9999 25.3125C46.9884 25.3125 48.039 24.2619 48.8066 23.4943C49.496 22.8049 49.8339 22.5 50.6249 22.5C51.4159 22.5 51.7537 22.8049 52.4431 23.4943C53.2108 24.2619 54.2614 25.3125 56.2499 25.3125C58.2384 25.3125 59.289 24.2619 60.0566 23.4943C60.746 22.8049 61.0839 22.5 61.8749 22.5V19.6873C61.8749 9.67175 54.3505 1.14583 44.3874 0.122094Z" fill="#993B17"/>
<path d="M45 22.5C44.176 22.5 43.7805 22.1045 43.1817 21.5057C42.4154 20.7381 41.3662 19.6875 39.375 19.6875C37.3837 19.6875 36.3345 20.7381 35.5696 21.5044C34.9694 22.1045 34.5739 22.5 33.75 22.5C32.926 22.5 32.5305 22.1045 31.9317 21.5057C31.1654 20.7381 30.1162 19.6875 28.125 19.6875C26.1337 19.6875 25.0845 20.7381 24.3196 21.5044C23.7195 22.1045 23.3239 22.5 22.5 22.5C21.676 22.5 21.2805 22.1045 20.6817 21.5057C19.9154 20.7381 18.8662 19.6875 16.875 19.6875C14.8837 19.6875 13.8345 20.7381 13.0696 21.5044C12.4695 22.1045 12.0739 22.5 11.25 22.5C10.426 22.5 10.0305 22.1045 9.43173 21.5057C8.86182 20.9358 8.08453 20.1558 6.85681 19.8372L7.56268 17.1153C9.38229 17.5864 10.529 18.6328 11.25 19.3469C12.2072 18.398 13.9032 16.875 16.875 16.875C19.8468 16.875 21.5414 18.398 22.5 19.3469C23.4572 18.398 25.1532 16.875 28.125 16.875C31.0968 16.875 32.7914 18.398 33.75 19.3469C34.7072 18.398 36.4032 16.875 39.375 16.875C42.3468 16.875 44.0414 18.398 45 19.3469C45.9571 18.398 47.6532 16.875 50.625 16.875C53.7822 16.875 55.4988 18.5944 56.4216 19.5186L54.4304 21.5044C53.6654 20.7381 52.6162 19.6875 50.625 19.6875C48.6337 19.6875 47.5845 20.7381 46.8196 21.5044C46.2195 22.1045 45.8239 22.5 45 22.5Z" fill="#A34E2D"/>
<path d="M56.2497 25.3124C54.2639 25.3124 53.2147 24.2646 52.4484 23.4997C51.7371 22.787 51.4185 22.4999 50.6247 22.4999C49.8309 22.4999 49.5123 22.787 48.8078 23.4928C48.0347 24.2646 46.9855 25.3124 44.9997 25.3124C43.0139 25.3124 41.9647 24.2646 41.1984 23.4997C40.4871 22.787 40.1685 22.4999 39.3747 22.4999C38.5809 22.4999 38.2623 22.787 37.5578 23.4928C36.7847 24.2646 35.7355 25.3124 33.7497 25.3124C31.7639 25.3124 30.7147 24.2646 29.9484 23.4997C29.2371 22.787 28.9185 22.4999 28.1247 22.4999C27.3309 22.4999 27.0123 22.787 26.3078 23.4928C25.5347 24.2646 24.4855 25.3124 22.4997 25.3124C20.5139 25.3124 19.4647 24.2646 18.6984 23.4997C17.9871 22.787 17.6685 22.4999 16.8747 22.4999C16.0809 22.4999 15.7623 22.787 15.0578 23.4928C14.2847 24.2646 13.2355 25.3124 11.2497 25.3124C9.26392 25.3124 8.21472 24.2646 7.44843 23.4997C6.73706 22.787 6.41846 22.4999 5.6247 22.4999C4.83093 22.4999 4.51233 22.787 3.80783 23.4928C3.36014 23.9405 2.80396 24.4967 2.01294 24.8757L0.79895 22.3379C1.15601 22.1676 1.46225 21.8614 1.81793 21.5057C2.58286 20.7394 3.63205 19.6874 5.6247 19.6874C7.61734 19.6874 8.66654 20.7394 9.43283 21.5071C10.1057 22.1786 10.4628 22.4999 11.2497 22.4999C12.0366 22.4999 12.3936 22.1786 13.0652 21.5084C13.8329 20.7394 14.8821 19.6874 16.8747 19.6874C18.8673 19.6874 19.9165 20.7394 20.6828 21.5071C21.3557 22.1786 21.7128 22.4999 22.4997 22.4999C23.2866 22.4999 23.6437 22.1786 24.3152 21.5084C25.0829 20.7394 26.1321 19.6874 28.1247 19.6874C30.1173 19.6874 31.1665 20.7394 31.9328 21.5071C32.6058 22.1786 32.9628 22.4999 33.7497 22.4999C34.5366 22.4999 34.8937 22.1786 35.5652 21.5084C36.3329 20.7394 37.3821 19.6874 39.3747 19.6874C41.3673 19.6874 42.4165 20.7394 43.1828 21.5071C43.8558 22.1786 44.2128 22.4999 44.9997 22.4999C45.7866 22.4999 46.1437 22.1786 46.8152 21.5084C47.5829 20.7394 48.6321 19.6874 50.6247 19.6874C52.6174 19.6874 53.6665 20.7394 54.4328 21.5071C55.1058 22.1786 55.4628 22.4999 56.2497 22.4999C57.0366 22.4999 57.3937 22.1786 58.0652 21.5084C58.3753 21.1844 58.7085 20.8833 59.0622 20.6075V19.6874C59.0622 10.5345 51.619 2.96487 42.4701 2.81519L42.5168 0.00268555C53.19 0.178466 61.8747 9.00873 61.8747 19.6874V22.4999L61.0713 22.6592C60.7294 22.8213 60.4328 23.1179 60.0565 23.4942C59.2847 24.2646 58.2355 25.3124 56.2497 25.3124Z" fill="#7D1A00"/>
<path d="M10.1705 20.4112C8.86495 20.4066 7.5771 20.1085 6.40222 19.5391L7.65329 17.0205C8.1051 17.2361 12.111 19.0365 14.2108 14.8397C16.0056 11.2499 18.9459 11.2499 21.0937 11.2499C23.2951 11.2499 24.4885 11.1593 25.4608 9.21472C27.7775 4.58261 30.8647 4.88336 33.1141 5.10721C34.9131 5.27887 35.8195 5.37225 36.7108 3.58972L39.2266 4.84766C37.4702 8.36054 34.7909 8.09824 32.8395 7.90598C30.7836 7.7041 29.4268 7.57089 27.9766 10.4727C26.1817 14.0624 23.2415 14.0624 21.0937 14.0624C18.8923 14.0624 17.6989 14.1531 16.7266 16.0977C15.0663 19.4169 12.4777 20.4112 10.1705 20.4112Z" fill="#A34E2D"/>
<path d="M16.7266 16.0977L14.2108 14.8397C16.0056 11.2499 18.9459 11.2499 21.0937 11.2499C23.2951 11.2499 24.4885 11.1593 25.4608 9.21472C27.7775 4.58261 30.8647 4.88336 33.1141 5.10721C34.9131 5.27887 35.8195 5.37225 36.7108 3.58972L39.2266 4.84766C37.4702 8.36054 34.7909 8.09824 32.8395 7.90598C30.7836 7.7041 29.4268 7.57089 27.9766 10.4727C26.1817 14.0624 23.2415 14.0624 21.0937 14.0624C18.8923 14.0624 17.6989 14.1531 16.7266 16.0977Z" fill="#B7745A"/>
<path d="M61.875 22.4999C61.051 22.4999 60.6761 22.8734 60.0568 23.4941C59.2891 24.2618 58.2385 25.3124 56.25 25.3124C54.2615 25.3124 53.2109 24.2618 52.4432 23.4941C51.8239 22.8734 51.449 22.4999 50.625 22.4999C49.801 22.4999 49.4261 22.8734 48.8068 23.4941C48.0391 24.2618 46.9885 25.3124 45 25.3124C43.0115 25.3124 41.9609 24.2618 41.1932 23.4941C40.5739 22.8734 40.199 22.4999 39.375 22.4999C38.551 22.4999 38.1761 22.8734 37.5568 23.4941C36.7891 24.2618 35.7385 25.3124 33.75 25.3124C31.7615 25.3124 30.7109 24.2618 29.9432 23.4941C29.3239 22.8734 28.949 22.4999 28.125 22.4999C27.301 22.4999 26.9261 22.8734 26.3068 23.4941C25.5391 24.2618 24.4885 25.3124 22.5 25.3124C20.5115 25.3124 19.4609 24.2618 18.6932 23.4941C18.0739 22.8734 17.699 22.4999 16.875 22.4999C16.051 22.4999 15.6761 22.8734 15.0568 23.4941C14.2891 24.2618 13.2385 25.3124 11.25 25.3124C9.26148 25.3124 8.21091 24.2618 7.44324 23.4941C6.82388 22.8734 6.44898 22.4999 5.625 22.4999C4.80103 22.4999 4.42612 22.8734 3.80676 23.4941C3.03909 24.2618 1.98853 25.3124 0 25.3124V28.1249C2.96906 28.1249 4.66644 26.6019 5.625 25.653C6.58356 26.6019 8.28095 28.1249 11.25 28.1249C14.2191 28.1249 15.9164 26.6019 16.875 25.653C17.8336 26.6019 19.5309 28.1249 22.5 28.1249C25.4691 28.1249 27.1664 26.6019 28.125 25.653C29.0836 26.6019 30.7809 28.1249 33.75 28.1249C36.7191 28.1249 38.4164 26.6019 39.375 25.653C40.3336 26.6019 42.0309 28.1249 45 28.1249C47.9691 28.1249 49.6665 26.6019 50.625 25.653C51.5836 26.6019 53.2809 28.1249 56.25 28.1249C59.2287 28.1249 60.9182 26.5981 61.875 25.6502V22.4999Z" fill="#FDCF6D"/>
<path d="M61.8748 36.5625V35.1562L61.8515 36.5625H61.8748Z" fill="#B7745A"/>
<path d="M61.875 33.7499C61.051 33.7499 60.6761 34.1234 60.0568 34.7441C59.2891 35.5118 58.2385 36.5624 56.25 36.5624C54.2615 36.5624 53.2109 35.5118 52.4432 34.7441C51.8239 34.1234 51.449 33.7499 50.625 33.7499C49.801 33.7499 49.4261 34.1234 48.8068 34.7441C48.0391 35.5118 46.9885 36.5624 45 36.5624C43.0115 36.5624 41.9609 35.5118 41.1932 34.7441C40.5739 34.1234 40.199 33.7499 39.375 33.7499C38.551 33.7499 38.1761 34.1234 37.5568 34.7441C36.7891 35.5118 35.7385 36.5624 33.75 36.5624C31.7615 36.5624 30.7109 35.5118 29.9432 34.7441C29.3239 34.1234 28.949 33.7499 28.125 33.7499C27.301 33.7499 26.9261 34.1234 26.3068 34.7441C25.5391 35.5118 24.4885 36.5624 22.5 36.5624C20.5115 36.5624 19.4609 35.5118 18.6932 34.7441C18.0739 34.1234 17.699 33.7499 16.875 33.7499C16.051 33.7499 15.6761 34.1234 15.0568 34.7441C14.2891 35.5118 13.2385 36.5624 11.25 36.5624C9.26148 36.5624 8.21091 35.5118 7.44324 34.7441C6.82388 34.1234 6.44898 33.7499 5.625 33.7499C4.80103 33.7499 4.42612 34.1234 3.80676 34.7441C3.03909 35.5118 1.98853 36.5624 0 36.5624V39.3749C2.96906 39.3749 4.66644 37.8519 5.625 36.903C6.58356 37.8519 8.28095 39.3749 11.25 39.3749C14.2191 39.3749 15.9164 37.8519 16.875 36.903C17.8336 37.8519 19.5309 39.3749 22.5 39.3749C25.4691 39.3749 27.1664 37.8519 28.125 36.903C29.0836 37.8519 30.7809 39.3749 33.75 39.3749C36.7191 39.3749 38.4164 37.8519 39.375 36.903C40.3336 37.8519 42.0309 39.3749 45 39.3749C47.9691 39.3749 49.6665 37.8519 50.625 36.903C51.5836 37.8519 53.2809 39.3749 56.25 39.3749C59.2287 39.3749 60.9182 37.8481 61.875 36.9002V33.7499Z" fill="#B7745A"/>
</svg>
