<svg width="12" height="11" viewBox="0 0 12 11" fill="none" xmlns="http://www.w3.org/2000/svg">
<path d="M11.9109 6.82289C11.78 7.11232 11.668 7.4135 11.5101 7.68649C10.4956 9.44344 9.00508 10.4762 7.04128 10.7704C6.78584 10.8087 6.52547 10.813 6.26737 10.833C3.62644 10.8142 1.28954 9.03495 0.516389 6.43046C0.325854 5.78854 0.415048 5.16307 0.712238 4.57246C0.83787 4.32297 0.871271 4.07898 0.823827 3.8009C0.71945 3.18327 0.791944 2.57895 1.0193 1.99695C1.19541 1.54733 1.51234 1.23166 1.92073 1.00411C2.02397 0.946539 2.12038 0.913248 2.21451 1.0092C2.31319 1.11025 2.29118 1.2207 2.22627 1.33036C2.00689 1.70282 1.89568 2.10465 1.9287 2.54213C1.93971 2.68391 1.964 2.82608 1.99664 2.96472C2.05699 3.22204 2.183 3.30468 2.43958 3.27256C3.75891 3.10689 4.83418 3.89921 5.11543 5.24453C5.44412 6.81702 6.5786 7.97788 8.10744 8.20503C9.53228 8.41653 10.6998 7.89524 11.5826 6.71401C11.594 6.69835 11.6035 6.68111 11.6149 6.66545C11.6764 6.57928 11.7413 6.4849 11.8616 6.5503C11.9789 6.61414 11.9569 6.72185 11.9109 6.82289Z" fill="white"/>
</svg>
