<svg width="68" height="55" viewBox="0 0 68 55" fill="none" xmlns="http://www.w3.org/2000/svg">
<path d="M61.1112 0C61.1112 6.1111 55.0001 6.1111 55.0001 6.1111C51.9445 6.1111 51.9445 9.16666 51.9445 9.16666C51.9445 12.2222 48.889 12.2222 48.889 12.2222C45.8334 12.2222 45.8334 15.2778 45.8334 15.2778C45.8334 18.3333 42.7779 18.3333 42.7779 18.3333V21.3889H9.06303C9.16681 15.2778 12.2224 12.2222 18.3335 12.2222C21.389 12.2222 21.389 9.16666 21.389 9.16666C21.389 6.1111 24.4446 6.1111 24.4446 6.1111C27.5001 6.1111 27.5001 3.05555 27.5001 3.05555C27.5001 5.46375e-07 30.5557 0 30.5557 0H36.6668V3.05555C36.6668 3.45681 36.7458 3.85415 36.8994 4.22486C37.0529 4.59558 37.278 4.93242 37.5617 5.21615C37.8455 5.49989 38.1823 5.72496 38.553 5.87851C38.9237 6.03207 39.3211 6.1111 39.7223 6.1111C40.5327 6.11111 41.3099 5.78919 41.8829 5.21616C42.456 4.64314 42.7779 3.86595 42.7779 3.05557C42.7779 2.24519 43.0998 1.46797 43.6728 0.894946C44.2459 0.321922 45.0231 0 45.8334 0H61.1112Z" fill="#F3EEE3"/>
<path d="M30.5555 18.3334H0V36.6667C0 48.8889 12.2222 51.9444 12.2222 51.9444C12.2222 51.9444 12.2222 55 15.2778 55H45.8333C48.8888 55 48.8888 51.9444 48.8888 51.9444C48.8888 51.9444 61.111 48.8889 61.111 36.6667V18.3334H30.5555Z" fill="#EAE2CE"/>
<path d="M21.3888 51.9444C21.3888 51.9444 33.611 48.8889 33.611 36.6667V18.3334H61.111V36.6667C61.111 48.8889 48.8888 51.9444 48.8888 51.9444C48.8888 51.9444 48.8888 55 45.8332 55H21.3888V51.9444Z" fill="#E0D4B7"/>
<path d="M30.5556 24.4445H3.05566V36.6667C3.05566 42.7778 9.16677 48.8889 15.2779 48.8889H45.8334C51.9445 48.8889 58.0556 42.7778 58.0556 36.6667V24.4445H30.5556Z" fill="#993B17"/>
<path d="M3.05566 24.4445V36.6667C3.05566 41.3429 6.6403 45.9948 11.0586 47.9329C8.43664 45.5827 6.11122 41.9973 6.11122 36.6667V24.4445H3.05566Z" fill="#C28A73"/>
<path d="M33.6112 36.6667C33.6112 42.7778 30.5556 46.5972 27.5 48.8889H45.8334C51.9445 48.8889 58.0556 42.7778 58.0556 36.6667V24.4445H33.6112V36.6667Z" fill="#8B2800"/>
<path d="M48.8889 24.4445V48.3417C53.8229 46.7708 58.0556 41.7455 58.0556 36.6667V24.4445H48.8889Z" fill="#7D1A00"/>
<path d="M18.3334 45.8333C15.903 45.8307 13.573 44.864 11.8545 43.1455C10.136 41.427 9.16937 39.097 9.16672 36.6667V27.5H15.2778V36.6667C15.2789 37.4767 15.6011 38.2533 16.1739 38.8261C16.7467 39.3989 17.5233 39.7212 18.3334 39.7222V45.8333Z" fill="#AD6143"/>
<path d="M15.2778 27.5H9.16672V33.6111H15.2778V27.5Z" fill="#C99884"/>
<path d="M30.5556 18.3334H3.05566V21.3889H30.5556V18.3334Z" fill="#F3EEE3"/>
<path d="M48.8889 24.4445C48.8889 24.8457 48.968 25.2431 49.1215 25.6138C49.2751 25.9845 49.5002 26.3213 49.7839 26.6051C50.0676 26.8888 50.4045 27.1139 50.7752 27.2674C51.1459 27.421 51.5432 27.5 51.9445 27.5H55.0001C55.8026 27.5 56.5972 27.6581 57.3387 27.9652C58.0801 28.2723 58.7538 28.7225 59.3213 29.2899C59.8887 29.8574 60.3389 30.5311 60.646 31.2725C60.9531 32.0139 61.1112 32.8086 61.1112 33.6111C61.1112 35.2319 60.4673 36.7863 59.3213 37.9323C58.1752 39.0784 56.6208 39.7222 55.0001 39.7222H51.9445C51.5432 39.7222 51.1459 39.8013 50.7752 39.9548C50.4045 40.1084 50.0676 40.3334 49.7839 40.6172C49.5002 40.9009 49.2751 41.2377 49.1215 41.6085C48.968 41.9792 48.8889 42.3765 48.8889 42.7778C48.8889 43.179 48.968 43.5764 49.1215 43.9471C49.2751 44.3178 49.5002 44.6546 49.7839 44.9384C50.0676 45.2221 50.4045 45.4472 50.7752 45.6007C51.1459 45.7543 51.5432 45.8333 51.9445 45.8333H55.0001C56.6051 45.8333 58.1944 45.5172 59.6773 44.903C61.1602 44.2887 62.5075 43.3885 63.6425 42.2535C64.7774 41.1186 65.6777 39.7712 66.2919 38.2884C66.9061 36.8055 67.2223 35.2162 67.2223 33.6111C67.2223 32.0061 66.9061 30.4167 66.2919 28.9339C65.6777 27.451 64.7774 26.1036 63.6425 24.9687C62.5075 23.8338 61.1602 22.9335 59.6773 22.3193C58.1944 21.7051 56.6051 21.3889 55.0001 21.3889H51.9445C51.5432 21.3889 51.1459 21.468 50.7752 21.6215C50.4045 21.7751 50.0676 22.0001 49.7839 22.2839C49.5002 22.5676 49.2751 22.9044 49.1215 23.2752C48.968 23.6459 48.8889 24.0432 48.8889 24.4445Z" fill="#EAE2CE"/>
<path d="M54.9999 42.7777H51.9443V39.7222H54.9999C56.6201 39.7206 58.1736 39.0762 59.3193 37.9305C60.465 36.7848 61.1094 35.2314 61.111 33.6111H64.1665C64.1639 36.0414 63.1972 38.3715 61.4787 40.09C59.7602 41.8085 57.4302 42.7751 54.9999 42.7777Z" fill="#D4C3A2"/>
<path d="M62.5239 28.3728C61.6783 27.161 60.5528 26.1711 59.243 25.4872C57.9331 24.8033 56.4775 24.4456 54.9999 24.4445H51.9443V21.3889H54.9999C56.9696 21.3907 58.9097 21.8675 60.6559 22.7789C62.402 23.6903 63.9026 25.0094 65.0304 26.6242L62.5239 28.3728Z" fill="#F3EEE3"/>
</svg>
