<svg width="56" height="62" viewBox="0 0 56 62" fill="none" xmlns="http://www.w3.org/2000/svg">
<path d="M55.9892 42.8988V19.0904C55.9892 16.5252 54.6111 14.1433 52.365 12.8608L31.6187 0.96193C29.3726 -0.320643 26.6165 -0.320643 24.3813 0.96193L3.6241 12.8715C1.37803 14.1541 0 16.536 0 19.1012V42.9096C0 45.4748 1.37803 47.8567 3.6241 49.1392L24.3813 61.0381C26.6274 62.3206 29.3835 62.3206 31.6187 61.0381L52.3759 49.1392C54.622 47.8567 56 45.4748 56 42.9096L55.9892 42.8988Z" fill="#00E6AA"/>
<path d="M39.5363 30.2326C39.4424 27.0131 38.2934 24.2807 36.0916 22.0351C33.8899 19.7871 31.2137 18.6164 28.063 18.518V16C29.9806 16.0429 31.7746 16.4441 33.4475 17.2035C35.1205 17.9629 36.5809 18.9797 37.8313 20.2564C39.0816 21.5331 40.0775 23.0242 40.8213 24.7323C41.5651 26.4404 41.958 28.2747 42 30.2326H39.5338H39.5363ZM32.9632 30.2326C32.8693 28.8878 32.3578 27.7398 31.4311 26.7886C30.5045 25.8374 29.3826 25.3176 28.0655 25.2319V22.7139C30.0646 22.7996 31.7697 23.5641 33.1757 25.0073C34.5842 26.4505 35.3355 28.1914 35.4294 30.2351H32.9632V30.2326ZM40.1986 45C37.1023 45 33.9887 44.2658 30.8628 42.7948C27.7368 41.3239 24.8629 39.25 22.2386 36.5705C19.6267 33.891 17.6004 30.9592 16.1597 27.7726C14.7191 24.586 14 21.412 14 18.2506C14 17.746 14.1656 17.3246 14.4942 16.984C14.8229 16.6434 15.2331 16.4718 15.7273 16.4718H21.0871C21.5022 16.4718 21.868 16.6106 22.1843 16.8856C22.5006 17.1631 22.7032 17.5037 22.7897 17.91L23.7312 22.8476C23.7954 23.3068 23.7831 23.7004 23.6892 24.0284C23.5953 24.3564 23.4297 24.6339 23.19 24.8584L19.3944 28.6304C20.0048 29.7734 20.7041 30.8532 21.4874 31.8725C22.2732 32.8919 23.1208 33.8632 24.0376 34.7917C24.9395 35.7126 25.8983 36.5679 26.914 37.3577C27.9296 38.1474 29.0267 38.8816 30.2055 39.5628L33.8948 35.7656C34.1518 35.4931 34.4632 35.3014 34.8289 35.1904C35.1946 35.0819 35.5751 35.0541 35.9681 35.1096L40.5322 36.0583C40.9473 36.1693 41.2859 36.3863 41.5478 36.7067C41.8097 37.0271 41.9407 37.3905 41.9407 37.7967V43.2364C41.9407 43.741 41.7727 44.1598 41.4391 44.4954C41.1055 44.831 40.6903 45 40.1986 45Z" fill="#2D524A"/>
</svg>
