<svg width="56" height="62" viewBox="0 0 56 62" fill="none" xmlns="http://www.w3.org/2000/svg">
<path d="M55.9892 42.8988V19.0904C55.9892 16.5252 54.6111 14.1433 52.365 12.8608L31.6187 0.96193C29.3726 -0.320643 26.6165 -0.320643 24.3813 0.96193L3.6241 12.8715C1.37803 14.1541 0 16.536 0 19.1012V42.9096C0 45.4748 1.37803 47.8567 3.6241 49.1392L24.3813 61.0381C26.6274 62.3206 29.3835 62.3206 31.6187 61.0381L52.3759 49.1392C54.622 47.8567 56 45.4748 56 42.9096L55.9892 42.8988Z" fill="#2D524A"/>
<path d="M42.9906 30.5013C42.9906 26.9868 43.0162 23.4697 42.9829 19.9552C42.9572 17.2353 40.7145 15 38.0767 15C31.3846 15 24.6925 15 18.0005 15C15.2343 15 13.0045 17.2935 13.0019 20.1459C12.9994 27.0531 12.9994 33.9628 13.0019 40.87C13.0019 43.717 15.2266 46 17.9799 46C24.6643 46 31.3487 46 38.0331 46C38.2204 46 38.4077 46 38.5925 45.9762C41.1533 45.6451 42.9931 43.4972 42.9931 40.8355C42.9931 37.3899 42.9931 33.9443 42.9931 30.4987H42.9906V30.5013ZM35.7673 19.2057C37.2838 19.1872 38.5566 20.4902 38.5566 22.0607C38.5566 23.6286 37.3197 24.9078 35.793 24.9105C34.2688 24.9158 33.0269 23.6472 33.0217 22.074C33.014 20.5035 34.2406 19.2216 35.7648 19.2031L35.7673 19.2057ZM20.179 19.2057C21.6826 19.1951 22.9374 20.469 22.9528 22.0184C22.9682 23.6074 21.7391 24.9025 20.2072 24.9078C18.6779 24.9158 17.4308 23.6525 17.4205 22.0846C17.4103 20.4982 18.6394 19.2137 20.179 19.2031V19.2057ZM20.1841 41.7969C18.6625 41.7969 17.4231 40.5177 17.4205 38.9499C17.4205 37.3846 18.6625 36.0922 20.1764 36.0869C21.7032 36.0816 22.9579 37.3767 22.9528 38.9525C22.9477 40.523 21.7083 41.7969 20.1841 41.7969ZM27.9334 33.3457C26.4348 33.3299 25.2134 32.0295 25.2288 30.4669C25.2468 28.8778 26.4939 27.6145 28.0309 27.6357C29.5551 27.6569 30.7662 28.9546 30.7483 30.5543C30.7303 32.1142 29.473 33.3616 27.9334 33.3457ZM35.7904 41.7969C34.2637 41.7969 33.0243 40.5204 33.0243 38.9525C33.0243 37.3714 34.2739 36.0789 35.7981 36.0869C37.3146 36.0948 38.5566 37.382 38.5566 38.9472C38.5566 40.5071 37.3069 41.7969 35.7879 41.7943L35.7904 41.7969Z" fill="#00E6AA"/>
</svg>
