<svg width="56" height="52" viewBox="0 0 56 52" fill="none" xmlns="http://www.w3.org/2000/svg">
<path d="M24.3042 52H8.64627C7.53508 52.003 6.45888 51.6116 5.60924 50.8955C4.7596 50.1793 4.19165 49.1849 4.00648 48.0892C2.6948 40.2651 0 21.5903 0 0.220703H32.9505C32.9505 21.5903 30.2557 40.2651 28.944 48.0892C28.7588 49.1849 28.1909 50.1793 27.3412 50.8955C26.4916 51.6116 25.4154 52.003 24.3042 52Z" fill="#D5D1D1"/>
<path d="M25.8898 44.9392H18.829V47.2928H25.8898V44.9392Z" fill="#C5C0C0"/>
<path d="M24.3038 52.0001H18.8691V49.6465H24.3038C24.8586 49.6501 25.3965 49.4563 25.8214 49.0996C26.2463 48.7429 26.5304 48.2467 26.6229 47.6997C27.7515 40.9721 30.3947 23.1063 30.5866 2.56287L32.9402 2.58585C32.7471 23.2948 30.0809 41.3066 28.9444 48.0893C28.7608 49.1858 28.1931 50.1813 27.343 50.8977C26.4928 51.6142 25.4156 52.0049 24.3038 52.0001Z" fill="#AFA8A8"/>
<path d="M17.176 48.0892C18.4877 40.265 21.1824 21.5902 21.1824 0.220703H0C0 21.5902 2.69478 40.265 4.00647 48.0892C4.19164 49.1849 4.75959 50.1793 5.60924 50.8954C6.4589 51.6116 7.53511 52.003 8.64631 52H12.5361C13.6473 52.003 14.7235 51.6116 15.5732 50.8954C16.4229 50.1793 16.9908 49.1849 17.176 48.0892Z" fill="#EDEBEB"/>
<path d="M14.1217 44.9392H7.06091V47.2928H14.1217V44.9392Z" fill="#D5D1D1"/>
<path d="M30.5854 2.57434H2.36517C2.52154 19.3477 4.30705 34.3028 5.58082 42.9392C5.66307 43.4969 5.94379 44.0063 6.37145 44.3737C6.7991 44.7412 7.34496 44.942 7.90876 44.9392H25.0419C25.6057 44.942 26.1515 44.7412 26.5792 44.3737C27.0068 44.0063 27.2876 43.4969 27.3698 42.9392C28.6436 34.3028 30.4291 19.3477 30.5854 2.57434Z" fill="#FDAB00"/>
<path d="M21.1644 2.57434H2.36517C2.52147 19.3477 4.30707 34.3028 5.58084 42.9392C5.66307 43.4969 5.94379 44.0063 6.37143 44.3737C6.79908 44.7412 7.34493 44.942 7.90873 44.9392H17.6814C19.0177 36.276 21.0001 20.5045 21.1644 2.57434Z" fill="#FDBC34"/>
<path d="M8.32247 45.307C7.20658 38.2588 5.2667 23.9545 4.80701 7.34708L9.51192 7.21606C9.96471 23.5591 11.8736 37.6348 12.9722 44.5715L8.32247 45.307Z" fill="#FDCF6D"/>
<path d="M6.71604 33.5182C5.9725 27.1216 5.42777 20.7078 5.09564 14.4572L9.79596 14.2067C10.1223 20.3607 10.6602 26.6757 11.3911 32.9757L6.71604 33.5182Z" fill="#FEE3AA"/>
<path d="M11.768 49.6464H9.41443V52H11.768V49.6464Z" fill="#D5D1D1"/>
<path d="M55.457 30.5969V18.8289C55.457 14.1217 50.7498 11.7681 50.7498 7.06085V2.35364H41.3354V7.06085C41.3354 11.7681 36.6282 14.1217 36.6282 18.8289V30.5969C36.6282 32.9505 38.9818 35.3041 38.9818 37.6577V42.3649C38.9818 44.7185 36.6282 44.7185 36.6282 47.0721V49.4257C36.6282 49.4257 36.6282 51.7793 38.9818 51.7793H53.1034C55.457 51.7793 55.457 49.4257 55.457 49.4257V47.0721C55.457 44.7185 53.1034 44.7185 53.1034 42.3649V37.6577C53.1034 35.3041 55.457 32.9505 55.457 30.5969Z" fill="#B99E69"/>
<path d="M50.7498 49.4257V47.0721C50.7498 44.7185 48.3962 44.7185 48.3962 42.3649V37.6577C48.3962 35.3041 50.7498 32.9505 50.7498 30.5969V18.8289C50.7498 14.1217 46.0426 11.7681 46.0426 7.06085V2.35364H41.3354V7.06085C41.3354 11.7681 36.6282 14.1217 36.6282 18.8289V30.5969C36.6282 32.9505 38.9818 35.3041 38.9818 37.6577V42.3649C38.9818 44.7185 36.6282 44.7185 36.6282 47.0721V49.4257C36.6282 49.4257 36.6282 51.7793 38.9818 51.7793H48.3962C50.7498 51.7793 50.7498 49.4257 50.7498 49.4257Z" fill="#D4C3A2"/>
<path d="M39.9104 33.0758C39.2691 31.7932 38.9818 31.1301 38.9818 30.5969V18.8289C38.9818 17.1878 39.8897 15.8259 40.9401 14.2504L42.8984 15.5559C41.8365 17.1499 41.3354 17.9922 41.3354 18.8289V30.5969C41.386 30.7658 41.8595 31.7105 42.0158 32.0208L39.9104 33.0758Z" fill="#EAE2CE"/>
<path d="M50.7496 18.8289H48.396V30.5969H50.7496V18.8289Z" fill="#C5AF83"/>
<path d="M55.457 30.5968V23.536H36.6282V30.5968C36.6282 32.9504 38.9818 35.304 38.9818 37.6576V42.3649C38.9818 44.7185 36.6282 44.7185 36.6282 47.0721V49.4257C36.6282 49.4257 36.6282 51.7793 38.9818 51.7793H53.1034C55.457 51.7793 55.457 49.4257 55.457 49.4257V47.0721C55.457 44.7185 53.1034 44.7185 53.1034 42.3649V37.6576C53.1034 35.304 55.457 32.9504 55.457 30.5968Z" fill="#8B2800"/>
<path d="M50.7498 30.5968V23.536H36.6282V30.5968C36.6282 32.9504 38.9818 35.304 38.9818 37.6576V42.3649C38.9818 44.7185 36.6282 44.7185 36.6282 47.0721V49.4257C36.6282 49.4257 36.6282 51.7793 38.9818 51.7793H48.3962C50.7498 51.7793 50.7498 49.4257 50.7498 49.4257V47.0721C50.7498 44.7185 48.3962 44.7185 48.3962 42.3649V37.6576C48.3962 35.304 50.7498 32.9504 50.7498 30.5968Z" fill="#993B17"/>
<path d="M53.1035 51.7793H50.7499V49.4257H53.1035V47.0721C53.1035 46.8893 53.1035 46.8698 52.6162 46.3825C51.9152 45.6815 50.7499 44.5127 50.7499 42.3649V37.6576C50.7499 35.9269 51.5061 34.4157 52.1726 33.0814C52.6323 32.1632 53.1035 31.222 53.1035 30.5968V23.536H55.4571V30.5968C55.4571 31.7782 54.8595 32.9734 54.2803 34.1284C53.6735 35.3408 53.1035 36.4831 53.1035 37.6576V42.3649C53.1035 43.5394 53.7011 44.1369 54.278 44.7162C54.8848 45.3229 55.4571 45.8953 55.4571 47.0721V49.4257C55.4203 50.8679 54.4963 51.7793 53.1035 51.7793Z" fill="#7D1A00"/>
<path d="M41.3354 0H50.7498C51.0589 -1.44881e-07 51.365 0.0608776 51.6505 0.179157C51.9361 0.297437 52.1955 0.470802 52.4141 0.689355C52.6326 0.907907 52.806 1.16737 52.9243 1.45292C53.0426 1.73847 53.1034 2.04453 53.1034 2.35361V4.70721H38.9818V2.35361C38.9818 2.04453 39.0427 1.73847 39.161 1.45292C39.2792 1.16737 39.4526 0.907908 39.6712 0.689355C39.8897 0.470803 40.1492 0.297437 40.4347 0.179157C40.7203 0.0608777 41.0263 0 41.3354 0Z" fill="#C82E25"/>
<path d="M46.0426 9.62301e-10H41.3354C41.0263 -8.83724e-06 40.7203 0.060863 40.4347 0.17914C40.1492 0.297416 39.8897 0.470781 39.6711 0.689335C39.4526 0.90789 39.2792 1.16735 39.161 1.45291C39.0427 1.73847 38.9818 2.04452 38.9818 2.35361V4.70721H48.3962V2.35361C48.3962 2.04452 48.3354 1.73847 48.2171 1.45291C48.0988 1.16735 47.9255 0.90789 47.7069 0.689335C47.4883 0.470781 47.2289 0.297416 46.9433 0.17914C46.6578 0.060863 46.3517 -8.83724e-06 46.0426 9.62301e-10Z" fill="#CD3E36"/>
<path d="M43.6888 2.35364H41.3352V4.70724H43.6888V2.35364Z" fill="#AF0A00"/>
<path d="M41.3354 2.35364H38.9818V4.70724H41.3354V2.35364Z" fill="#C82E25"/>
<path d="M46.0427 2.35364H43.6891V4.70724H46.0427V2.35364Z" fill="#D96C66"/>
<path d="M50.7496 2.35364H48.396V4.70724H50.7496V2.35364Z" fill="#D2514A"/>
<path d="M48.3961 2.35364H46.0425V4.70724H48.3961V2.35364Z" fill="#C82E25"/>
<path d="M53.1035 2.35364H50.7499V4.70724H53.1035V2.35364Z" fill="#AF0A00"/>
<path d="M41.3354 49.4257H38.9818V46.8491L39.3473 46.5009C40.1678 45.6838 41.3354 44.5162 41.3354 42.3649V37.6577C41.3354 35.9292 40.5815 34.4169 39.915 33.0826C39.2691 31.7932 38.9818 31.1301 38.9818 30.5969V25.8896H41.3354V30.5969C41.386 30.7658 41.8595 31.7105 42.0158 32.0207C42.7237 33.4423 43.689 35.3742 43.689 37.6577V42.3649C43.689 45.2552 42.2134 46.948 41.3354 47.8432V49.4257Z" fill="#B7745A"/>
<path d="M39.9104 33.0757C39.2691 31.7932 38.9818 31.1301 38.9818 30.5968V23.536H41.3354V30.5968C41.386 30.7658 41.8595 31.7104 42.0158 32.0207L39.9104 33.0757Z" fill="#C99884"/>
<path d="M50.7496 23.536H48.396V30.5968H50.7496V23.536Z" fill="#A34E2D"/>
<path d="M41.3354 47.0721H38.9818V49.4257H41.3354V47.0721Z" fill="#C99884"/>
<path d="M50.7496 47.0721H48.396V49.4257H50.7496V47.0721Z" fill="#A34E2D"/>
<path d="M48.3962 49.4257H38.9818V51.7793H48.3962V49.4257Z" fill="#8B2800"/>
<path d="M50.7497 4.70728H46.0425V7.06088H50.7497V4.70728Z" fill="#A37F39"/>
<path d="M46.0427 4.70728H43.6891V7.06088H46.0427V4.70728Z" fill="#C5AF83"/>
</svg>
