<?xml version="1.0" encoding="UTF-8"?>
<svg id="Layer_1" data-name="Layer 1" xmlns="http://www.w3.org/2000/svg" viewBox="0 0 32 32">
  <defs>
    <style>
      .cls-1 {
        fill: #2d524a;
      }

      .cls-2 {
        fill: #00e6aa;
      }
    </style>
  </defs>
  <rect class="cls-1" width="32" height="32" rx="10.62" ry="10.62"/>
  <path class="cls-2" d="m24.98,11.99c-.6-.6-1.43-.97-2.35-.97h-3.32l-3.32,3.32c0-.92-.37-1.75-.97-2.35-.6-.6-1.43-.97-2.35-.97h-3.32l-3.32,3.32v6.64h6.64l3.32-3.32v3.32h6.64l3.32-3.32v-3.32c0-.92-.37-1.75-.97-2.35Zm-13.96,5.67c-.92,0-1.66-.74-1.66-1.66s.74-1.66,1.66-1.66,1.66.74,1.66,1.66-.74,1.66-1.66,1.66Zm9.96,0c-.92,0-1.66-.74-1.66-1.66s.74-1.66,1.66-1.66,1.66.74,1.66,1.66-.74,1.66-1.66,1.66Z"/>
</svg>