<svg width="56" height="62" viewBox="0 0 56 62" fill="none" xmlns="http://www.w3.org/2000/svg">
<path d="M55.9892 42.8988V19.0904C55.9892 16.5252 54.6111 14.1433 52.365 12.8608L31.6187 0.96193C29.3726 -0.320643 26.6165 -0.320643 24.3813 0.96193L3.6241 12.8715C1.37803 14.1541 0 16.536 0 19.1012V42.9096C0 45.4748 1.37803 47.8567 3.6241 49.1392L24.3813 61.0381C26.6274 62.3206 29.3835 62.3206 31.6187 61.0381L52.3759 49.1392C54.622 47.8567 56 45.4748 56 42.9096L55.9892 42.8988Z" fill="#2D524A"/>
<path d="M21.5332 46V32.013C20.2574 31.7419 19.184 31.1108 18.3104 30.1173C17.4368 29.1239 17 27.94 17 26.5632V16H19.3571V26.5632H21.5332V16H23.8903V26.5632H26.0663V16H28.4235V26.5632C28.4235 27.94 27.9867 29.1239 27.1131 30.1173C26.2395 31.1108 25.1661 31.7419 23.8903 32.013V46H21.5332ZM36.6429 46V33.6923H32.3521V23.309C32.3521 21.3872 32.9833 19.721 34.2431 18.3103C35.5029 16.897 37.0877 16.1382 39 16.0287V46H36.6429Z" fill="#00E6AA"/>
</svg>
