<svg width="55" height="55" viewBox="0 0 55 55" fill="none" xmlns="http://www.w3.org/2000/svg">
<path d="M2.50018 25V10H12.5001V12.5H17.5002V7.49996H42.5001V5H52.5001V25H2.50018Z" fill="#CC4900"/>
<path d="M39.9999 0H29.9999V37.5H39.9999V0Z" fill="#E76400"/>
<path d="M35.0002 2.5H32.5002V40H35.0002V2.5Z" fill="#CC4900"/>
<path d="M15.0001 5H5.00006V40H15.0001V5Z" fill="#F59707"/>
<path d="M10.0001 7.5H7.50012V42.5H10.0001V7.5Z" fill="#FDAB00"/>
<path d="M10.0001 12.5H7.50012V25H10.0001V12.5Z" fill="#FDBC34"/>
<path d="M5.00006 16.4648V25.0001H15V15H6.4649L5.00006 16.4648Z" fill="#EF7F00"/>
<path d="M54.2939 14.0272L47.2228 6.95618L20.7064 33.4727L27.7774 40.5437L54.2939 14.0272Z" fill="#F59707"/>
<path d="M47.8662 10.3662L37.8662 20.3662L39.6338 22.1338L49.6338 12.1338L47.8662 10.3662Z" fill="#FDBC34"/>
<path d="M32.5002 35.8211L35.0002 33.321V19.1788L32.5002 21.6789V35.8211Z" fill="#EF7F00"/>
<path d="M32.4999 2.5H22.4999V40H32.4999V2.5Z" fill="#FDAB00"/>
<path d="M22.4999 0H12.4999V37.5H22.4999V0Z" fill="#FDBC34"/>
<path d="M17.5001 2.5H15.0001V37.5H17.5001V2.5Z" fill="#FDCF6D"/>
<path d="M17.5001 7.5H15.0001V12.5H17.5001V7.5Z" fill="#FEE3AA"/>
<path d="M22.5 0H20V37.5H22.5V0Z" fill="#FDAB00"/>
<path d="M24.9999 5H22.4999V37.5H24.9999V5Z" fill="#F59707"/>
<path d="M29.1791 25.0001H43.3213L50.9284 17.393L48.5353 15H39.1791L29.1791 25.0001Z" fill="#EF7F00"/>
<path d="M32.5002 25H35.0002V19.1788L32.5002 21.6789V25Z" fill="#E76400"/>
<path d="M22.4999 21.5911V25H32.4999V21.6028C31.1718 22.1414 29.5266 22.5 27.4999 22.5C25.4699 22.5 23.8302 22.1341 22.4999 21.5911Z" fill="#F59707"/>
<path d="M12.4999 25H22.4999V21.591C18.6084 20.0026 17.4291 16.8681 17.3717 16.709L16.8016 15H12.4999V25Z" fill="#F59707"/>
<path d="M47.5 17.5H40C40 17.5 37.5 25 27.5 25C17.5 25 15 17.5 15 17.5H7.5L0 25L5 50L10 55C10 55 17.5 52.5 27.5 52.5C37.5 52.5 45 55 45 55L50 50L55 25L47.5 17.5Z" fill="#C11107"/>
<path d="M12.2899 51.7651L10.2611 21.333L12.7562 21.167L14.5934 48.7341C18.848 47.9234 23.1687 47.5103 27.4999 47.5V50C22.8625 50.0111 18.2388 50.5016 13.7023 51.4636L12.2899 51.7651Z" fill="#C82E25"/>
<path d="M13.1739 27.4302L10.6788 27.5966L11.5114 40.0831L14.0064 39.9168L13.1739 27.4302Z" fill="#D2514A"/>
<path d="M45.0024 54.967L43.529 54.5678C40.6774 53.7964 34.8022 52.5 27.4999 52.5V50C32.6213 50.003 37.725 50.6002 42.7087 51.7798L44.8266 20H41.5807C40.0585 22.7087 36.1425 27.5 27.4999 27.5C18.0419 27.5 14.2443 21.7615 13.0493 19.2944L15.3002 18.2056C16.289 20.2478 19.4567 25 27.4999 25C35.5431 25 38.7109 20.2478 39.6996 18.2056L40.0414 17.5H47.4999L45.0024 54.967Z" fill="#AF0A00"/>
<path d="M27.5 45C31.6421 45 35 41.6421 35 37.5C35 33.3579 31.6421 30 27.5 30C23.3579 30 20 33.3579 20 37.5C20 41.6421 23.3579 45 27.5 45Z" fill="#FDAB00"/>
<path d="M47.5001 17.5L45 55L50 49.9999L55.0001 25L47.5001 17.5Z" fill="#AF0A00"/>
<path d="M7.5 17.5L10.0001 55L5.00004 49.9999L0 25L7.5 17.5Z" fill="#D2514A"/>
</svg>
