<?xml version="1.0" encoding="UTF-8"?>
<svg id="Layer_1" data-name="Layer 1" xmlns="http://www.w3.org/2000/svg" viewBox="0 0 500 500">
  <defs>
    <style>
      .cls-1 {
        fill: #00e6aa;
      }
    </style>
  </defs>
  <path class="cls-1" d="m418.9,174.69c-11.28-11.29-26.88-18.28-44.12-18.28h-62.39l-62.39,62.39c0-17.24-6.98-32.83-18.28-44.12-11.28-11.29-26.88-18.28-44.12-18.28h-62.39l-62.39,62.39v124.78h124.78l62.39-62.39v62.39h124.78l62.39-62.39v-62.39c0-17.24-6.98-32.83-18.28-44.12Zm-262.48,106.51c-17.23,0-31.2-13.97-31.2-31.2s13.97-31.2,31.2-31.2,31.2,13.97,31.2,31.2-13.97,31.2-31.2,31.2Zm187.17,0c-17.23,0-31.2-13.97-31.2-31.2s13.97-31.2,31.2-31.2,31.2,13.97,31.2,31.2-13.97,31.2-31.2,31.2Z"/>
</svg>