<svg width="50" height="62" viewBox="0 0 50 62" fill="none" xmlns="http://www.w3.org/2000/svg">
<path d="M25.2041 31.0033C26.9053 31.0033 28.3617 30.4037 29.5732 29.2045C30.7848 28.0053 31.3905 26.5638 31.3905 24.8798C31.3905 23.1958 30.7848 21.7543 29.5732 20.5551C28.3617 19.3559 26.9053 18.7563 25.2041 18.7563C23.5028 18.7563 22.0464 19.3559 20.8349 20.5551C19.6234 21.7543 19.0177 23.1958 19.0177 24.8798C19.0177 26.5638 19.6234 28.0053 20.8349 29.2045C22.0464 30.4037 23.5028 31.0033 25.2041 31.0033ZM25.2041 53.5072C31.4936 47.7919 36.1592 42.5997 39.2009 37.9305C42.2425 33.2614 43.7634 29.1152 43.7634 25.4921C43.7634 19.93 41.9719 15.3756 38.3889 11.8291C34.8059 8.28252 30.411 6.50926 25.2041 6.50926C19.9972 6.50926 15.6022 8.28252 12.0193 11.8291C8.43629 15.3756 6.6448 19.93 6.6448 25.4921C6.6448 29.1152 8.16563 33.2614 11.2073 37.9305C14.249 42.5997 18.9145 47.7919 25.2041 53.5072ZM25.2041 61.6209C16.904 54.6299 10.7046 48.1364 6.60614 42.1404C2.50763 36.1445 0.458374 30.5951 0.458374 25.4921C0.458374 17.8378 2.94583 11.7398 7.92075 7.19815C12.8957 2.65655 18.6568 0.385742 25.2041 0.385742C31.7514 0.385742 37.5125 2.65655 42.4874 7.19815C47.4623 11.7398 49.9498 17.8378 49.9498 25.4921C49.9498 30.5951 47.9005 36.1445 43.802 42.1404C39.7035 48.1364 33.5042 54.6299 25.2041 61.6209Z" fill="#00E6AA"/>
</svg>
