<svg width="60" height="60" viewBox="0 0 60 60" fill="none" xmlns="http://www.w3.org/2000/svg">
<path d="M2.1427 8.57152C2.1427 5.0358 5.03556 2.14294 8.57127 2.14294H51.4284C54.9641 2.14294 57.857 5.0358 57.857 8.57152V51.4287C57.857 54.9644 54.9641 57.8572 51.4284 57.8572H8.57127C5.03556 57.8572 2.1427 54.9644 2.1427 51.4287V8.57152Z" fill="white"/>
<path d="M4.28571 36.4286C4.39286 39.9643 12.1071 42.8571 21.4286 42.8571C40.1786 42.8571 55.3929 33.3214 55.7143 21.4286H57.8571V51.4286C57.8571 54.9643 54.9643 57.8571 51.4286 57.8571H38.5714V60H8.57143C3.85714 60 0 56.1429 0 51.4286V8.57143C0 3.85714 3.85714 0 8.57143 0H21.4286V4.28571H8.57143C6.21429 4.28571 4.28571 6.21429 4.28571 8.57143V36.4286Z" fill="white"/>
<path fill-rule="evenodd" clip-rule="evenodd" d="M12.857 17.1429C15.2142 17.1429 17.1427 15.2143 17.1427 12.8572C17.1427 10.5001 15.2142 8.57148 12.857 8.57148C10.4999 8.57148 8.5713 10.5001 8.5713 12.8572C8.5713 15.2143 10.4999 17.1429 12.857 17.1429ZM21.4284 21.4286V27.8572H12.857V21.4286H21.4284ZM8.5713 4.28577C6.21415 4.28577 4.28558 6.21434 4.28558 8.57148V21.4286H8.5713V32.1429H21.4284V38.5715L29.9999 30.0001L21.4284 21.4286V4.28577H8.5713Z" fill="#0C907D"/>
<path fill-rule="evenodd" clip-rule="evenodd" d="M47.1428 17.1429C49.4999 17.1429 51.4285 15.2143 51.4285 12.8572C51.4285 10.5001 49.4999 8.57148 47.1428 8.57148C44.7856 8.57148 42.857 10.5001 42.857 12.8572C42.857 15.2143 44.7856 17.1429 47.1428 17.1429ZM38.5713 4.28577H55.7142V21.4286H38.5713V12.8572H32.1428V21.4286H38.5713L29.9999 30L21.4285 21.4286H27.857V8.57148H38.5713V4.28577Z" fill="#FACC2E"/>
<path fill-rule="evenodd" clip-rule="evenodd" d="M47.1429 51.4286C49.5 51.4286 51.4286 49.5 51.4286 47.1429C51.4286 44.7857 49.5 42.8572 47.1429 42.8572C44.7857 42.8572 42.8571 44.7857 42.8571 47.1429C42.8571 49.5 44.7857 51.4286 47.1429 51.4286ZM47.1429 38.5714H38.5714V32.1429H47.1429V38.5714ZM30 30L38.5714 38.5714V55.7143H55.7143V38.5714H51.4286V27.8572H38.5714V21.4286L30 30Z" fill="#0779E4"/>
<path fill-rule="evenodd" clip-rule="evenodd" d="M12.857 51.4286C15.2142 51.4286 17.1427 49.5 17.1427 47.1429C17.1427 44.7857 15.2142 42.8571 12.857 42.8571C10.4999 42.8571 8.5713 44.7857 8.5713 47.1429C8.5713 49.5 10.4999 51.4286 12.857 51.4286ZM21.4284 38.5714H27.857V47.1429H21.4284V38.5714ZM21.4284 38.5714H4.28558V50.3571C4.28558 53.3571 6.64273 55.7143 9.64273 55.7143H21.4284V51.4286H32.1427V38.5714H38.5713L29.9999 30L21.4284 38.5714Z" fill="#FF6C58"/>
<path fill-rule="evenodd" clip-rule="evenodd" d="M17.1427 47.1428C17.1427 49.5 15.2142 51.4286 12.857 51.4286C10.4999 51.4286 8.5713 49.5 8.5713 47.1428C8.5713 44.7857 10.4999 42.8571 12.857 42.8571C15.2142 42.8571 17.1427 44.7857 17.1427 47.1428ZM27.857 42.4286V47.1428H21.4284V42.8571C14.0356 42.8571 7.71415 41.0357 5.35701 38.5714H4.28558V51.4286C4.28558 53.7857 6.21415 55.7143 8.5713 55.7143H21.4284V51.4286H32.1427V41.7857C30.7499 42.1071 29.357 42.3214 27.857 42.4286Z" fill="#D7385E"/>
<path fill-rule="evenodd" clip-rule="evenodd" d="M51.4285 4.28571H21.4285V0H51.4285C56.1427 0 59.9999 3.85714 59.9999 8.57143V51.4286C59.9999 56.1429 56.1427 60 51.4285 60H38.5713V55.7143H51.4285C53.7856 55.7143 55.7142 53.7857 55.7142 51.4286V8.57143C55.7142 6.21429 53.7856 4.28571 51.4285 4.28571Z" fill="#314A52"/>
</svg>
