<svg width="62" height="51" viewBox="0 0 62 51" fill="none" xmlns="http://www.w3.org/2000/svg">
<path d="M6.71006 50.1716C5.0261 50.1716 3.58452 49.5658 2.38533 48.3543C1.18614 47.1428 0.586548 45.6864 0.586548 43.9852V6.8666C0.586548 5.16534 1.18614 3.70895 2.38533 2.49744C3.58452 1.28593 5.0261 0.680176 6.71006 0.680176H55.6982C57.3821 0.680176 58.8237 1.28593 60.0229 2.49744C61.2221 3.70895 61.8217 5.16534 61.8217 6.8666V43.9852C61.8217 45.6864 61.2221 47.1428 60.0229 48.3543C58.8237 49.5658 57.3821 50.1716 55.6982 50.1716H6.71006ZM31.2041 28.5191L6.71006 13.053V43.9852H55.6982V13.053L31.2041 28.5191ZM31.2041 22.3327L55.6982 6.8666H6.71006L31.2041 22.3327ZM6.71006 13.053V6.8666V43.9852V13.053Z" fill="#00E6AA"/>
</svg>
