<svg width="56" height="62" viewBox="0 0 56 62" fill="none" xmlns="http://www.w3.org/2000/svg">
<path d="M55.9892 42.8988V19.0904C55.9892 16.5252 54.6111 14.1433 52.365 12.8608L31.6187 0.96193C29.3726 -0.320643 26.6165 -0.320643 24.3813 0.96193L3.6241 12.8715C1.37803 14.1541 0 16.536 0 19.1012V42.9096C0 45.4748 1.37803 47.8567 3.6241 49.1392L24.3813 61.0381C26.6274 62.3206 29.3835 62.3206 31.6187 61.0381L52.3759 49.1392C54.622 47.8567 56 45.4748 56 42.9096L55.9892 42.8988Z" fill="#2D524A"/>
<path d="M32.1287 45.8594C30.6056 46.7388 29.005 46.9812 27.3301 46.5818C25.6528 46.1838 24.401 45.2663 23.5709 43.8286C22.7408 42.3908 22.5709 40.8458 23.0661 39.1964C23.56 37.5449 24.568 36.2812 26.091 35.4019C26.6974 35.0518 27.316 34.8082 27.9445 34.6726C28.573 34.537 29.2066 34.5121 29.8478 34.5963L20.7951 18.9166L29.4102 13.9426L32.2297 18.8262L25.9895 22.429L34.6498 37.4292C35.4799 38.867 35.6498 40.412 35.1546 42.0614C34.6607 43.7129 33.6528 44.9766 32.1297 45.8559L32.1287 45.8594Z" fill="#FCE8BF"/>
</svg>
