<svg width="88" height="197" viewBox="0 0 88 197" fill="none" xmlns="http://www.w3.org/2000/svg">
<path d="M67.1769 190.991C57.8142 196.397 48.0356 197.993 37.8621 195.751C27.6743 193.517 20.1261 188.132 15.1955 179.592C10.265 171.052 9.36846 161.81 12.5351 151.883C15.6942 141.943 21.9518 134.281 31.3145 128.876C35.0425 126.723 38.8351 125.208 42.678 124.339C46.521 123.47 50.3858 123.264 54.2867 123.711L0.515539 30.5768L53.4761 -1.71661e-05L70.2234 29.0071L31.8618 51.1552L83.3026 140.253C88.2331 148.793 89.1297 158.035 85.9631 167.962C82.8039 177.902 76.5464 185.564 67.1837 190.97L67.1769 190.991Z" fill="#2D524A" fill-opacity="0.1"/>
</svg>
