<svg width="55" height="54" viewBox="0 0 55 54" fill="none" xmlns="http://www.w3.org/2000/svg">
<path d="M54.0001 9.81822L2.45471 4.9091V2.45459L54.0001 7.3636V9.81822Z" fill="#993B17"/>
<path d="M7.3638 30.6818H4.90926C4.90926 29.9915 4.64319 29.6966 4.04154 29.095C3.37157 28.4262 2.45471 27.5082 2.45471 25.7727C2.45471 24.0373 3.37157 23.1192 4.04154 22.4504C4.64319 21.8488 4.90926 21.554 4.90926 20.8636C4.90926 20.1733 4.64319 19.8785 4.04154 19.2768C3.37157 18.608 2.45471 17.69 2.45471 15.9545C2.45471 14.2191 3.37157 13.301 4.04154 12.6323C4.64319 12.0306 4.90926 11.7358 4.90926 11.0454C4.90926 10.3551 4.64319 10.0603 4.04154 9.45862C3.37157 8.78986 2.45471 7.8718 2.45471 6.13636C2.45471 4.40092 3.37157 3.48286 4.04154 2.8141C4.64319 2.21245 4.90926 1.91761 4.90926 1.22727V0H7.3638V1.22727C7.3638 2.96271 6.44694 3.88077 5.77698 4.54954C5.17532 5.15119 4.90926 5.44602 4.90926 6.13636C4.90926 6.8267 5.17532 7.12153 5.77698 7.72318C6.44694 8.39195 7.3638 9.31001 7.3638 11.0454C7.3638 12.7809 6.44694 13.6989 5.77698 14.3677C5.17532 14.9694 4.90926 15.2642 4.90926 15.9545C4.90926 16.6449 5.17532 16.9397 5.77698 17.5414C6.44694 18.2101 7.3638 19.1282 7.3638 20.8636C7.3638 22.5991 6.44694 23.5171 5.77698 24.1859C5.17532 24.7875 4.90926 25.0824 4.90926 25.7727C4.90926 26.4631 5.17532 26.7579 5.77698 27.3595C6.44694 28.0283 7.3638 28.9464 7.3638 30.6818Z" fill="#FDCF6D"/>
<path d="M12.2729 30.6818H9.81831C9.81831 29.9915 9.55225 29.6966 8.95059 29.095C8.28063 28.4262 7.36377 27.5082 7.36377 25.7727C7.36377 24.0373 8.28063 23.1192 8.95059 22.4504C9.55225 21.8488 9.81831 21.554 9.81831 20.8636C9.81831 20.1733 9.55225 19.8785 8.95059 19.2768C8.28063 18.608 7.36377 17.69 7.36377 15.9545C7.36377 14.2191 8.28063 13.301 8.95059 12.6323C9.55225 12.0306 9.81831 11.7358 9.81831 11.0454C9.81831 10.3551 9.55225 10.0603 8.95059 9.45862C8.28063 8.78986 7.36377 7.8718 7.36377 6.13636C7.36377 4.40092 8.28063 3.48286 8.95059 2.8141C9.55225 2.21245 9.81831 1.91761 9.81831 1.22727V0H12.2729V1.22727C12.2729 2.96271 11.356 3.88077 10.686 4.54954C10.0844 5.15119 9.81831 5.44602 9.81831 6.13636C9.81831 6.8267 10.0844 7.12153 10.686 7.72318C11.356 8.39195 12.2729 9.31001 12.2729 11.0454C12.2729 12.7809 11.356 13.6989 10.686 14.3677C10.0844 14.9694 9.81831 15.2642 9.81831 15.9545C9.81831 16.6449 10.0844 16.9397 10.686 17.5414C11.356 18.2101 12.2729 19.1282 12.2729 20.8636C12.2729 22.5991 11.356 23.5171 10.686 24.1859C10.0844 24.7875 9.81831 25.0824 9.81831 25.7727C9.81831 26.4631 10.0844 26.7579 10.686 27.3595C11.356 28.0283 12.2729 28.9464 12.2729 30.6818Z" fill="#FDBC34"/>
<path d="M22.0909 30.6818H19.6363C19.6363 29.9915 19.3702 29.6966 18.7686 29.095C18.0986 28.4262 17.1818 27.5082 17.1818 25.7727C17.1818 24.0373 18.0986 23.1192 18.7686 22.4504C19.3702 21.8488 19.6363 21.554 19.6363 20.8636C19.6363 20.1733 19.3702 19.8785 18.7686 19.2768C18.0986 18.608 17.1818 17.69 17.1818 15.9545C17.1818 14.2191 18.0986 13.301 18.7686 12.6323C19.3702 12.0306 19.6363 11.7358 19.6363 11.0454C19.6363 10.3551 19.3702 10.0603 18.7686 9.45862C18.0986 8.78986 17.1818 7.8718 17.1818 6.13636C17.1818 4.40092 18.0986 3.48286 18.7686 2.8141C19.3702 2.21245 19.6363 1.91761 19.6363 1.22727V0H22.0909V1.22727C22.0909 2.96271 21.174 3.88077 20.504 4.54954C19.9024 5.15119 19.6363 5.44602 19.6363 6.13636C19.6363 6.8267 19.9024 7.12153 20.504 7.72318C21.174 8.39195 22.0909 9.31001 22.0909 11.0454C22.0909 12.7809 21.174 13.6989 20.504 14.3677C19.9024 14.9694 19.6363 15.2642 19.6363 15.9545C19.6363 16.6449 19.9024 16.9397 20.504 17.5414C21.174 18.2101 22.0909 19.1282 22.0909 20.8636C22.0909 22.5991 21.174 23.5171 20.504 24.1859C19.9024 24.7875 19.6363 25.0824 19.6363 25.7727C19.6363 26.4631 19.9024 26.7579 20.504 27.3595C21.174 28.0283 22.0909 28.9464 22.0909 30.6818Z" fill="#FDBC34"/>
<path d="M17.1819 30.6818H14.7274C14.7274 29.9915 14.4613 29.6966 13.8597 29.095C13.1897 28.4262 12.2728 27.5082 12.2728 25.7727C12.2728 24.0373 13.1897 23.1192 13.8597 22.4504C14.4613 21.8488 14.7274 21.554 14.7274 20.8636C14.7274 20.1733 14.4613 19.8785 13.8597 19.2768C13.1897 18.608 12.2728 17.69 12.2728 15.9545C12.2728 14.2191 13.1897 13.301 13.8597 12.6323C14.4613 12.0306 14.7274 11.7358 14.7274 11.0454C14.7274 10.3551 14.4613 10.0603 13.8597 9.45862C13.1897 8.78986 12.2728 7.8718 12.2728 6.13636C12.2728 4.40092 13.1897 3.48286 13.8597 2.8141C14.4613 2.21245 14.7274 1.91761 14.7274 1.22727V0H17.1819V1.22727C17.1819 2.96271 16.2651 3.88077 15.5951 4.54954C14.9934 5.15119 14.7274 5.44602 14.7274 6.13636C14.7274 6.8267 14.9934 7.12153 15.5951 7.72318C16.2651 8.39195 17.1819 9.31001 17.1819 11.0454C17.1819 12.7809 16.2651 13.6989 15.5951 14.3677C14.9934 14.9694 14.7274 15.2642 14.7274 15.9545C14.7274 16.6449 14.9934 16.9397 15.5951 17.5414C16.2651 18.2101 17.1819 19.1282 17.1819 20.8636C17.1819 22.5991 16.2651 23.5171 15.5951 24.1859C14.9934 24.7875 14.7274 25.0824 14.7274 25.7727C14.7274 26.4631 14.9934 26.7579 15.5951 27.3595C16.2651 28.0283 17.1819 28.9464 17.1819 30.6818Z" fill="#FDCF6D"/>
<path d="M26.9999 30.6818H24.5454C24.5454 29.9915 24.2793 29.6966 23.6776 29.095C23.0077 28.4262 22.0908 27.5082 22.0908 25.7727C22.0908 24.0373 23.0077 23.1192 23.6776 22.4504C24.2793 21.8488 24.5454 21.554 24.5454 20.8636C24.5454 20.1733 24.2793 19.8785 23.6776 19.2768C23.0077 18.608 22.0908 17.69 22.0908 15.9545C22.0908 14.2191 23.0077 13.301 23.6776 12.6323C24.2793 12.0306 24.5454 11.7358 24.5454 11.0454C24.5454 10.3551 24.2793 10.0603 23.6776 9.45862C23.0077 8.78986 22.0908 7.8718 22.0908 6.13636C22.0908 4.40092 23.0077 3.48286 23.6776 2.8141C24.2793 2.21245 24.5454 1.91761 24.5454 1.22727V0H26.9999V1.22727C26.9999 2.96271 26.0831 3.88077 25.4131 4.54954C24.8114 5.15119 24.5454 5.44602 24.5454 6.13636C24.5454 6.8267 24.8114 7.12153 25.4131 7.72318C26.0831 8.39195 26.9999 9.31001 26.9999 11.0454C26.9999 12.7809 26.0831 13.6989 25.4131 14.3677C24.8114 14.9694 24.5454 15.2642 24.5454 15.9545C24.5454 16.6449 24.8114 16.9397 25.4131 17.5414C26.0831 18.2101 26.9999 19.1282 26.9999 20.8636C26.9999 22.5991 26.0831 23.5171 25.4131 24.1859C24.8114 24.7875 24.5454 25.0824 24.5454 25.7727C24.5454 26.4631 24.8114 26.7579 25.4131 27.3595C26.0831 28.0283 26.9999 28.9464 26.9999 30.6818Z" fill="#FDCF6D"/>
<path d="M31.9092 30.6818H29.4547C29.4547 29.9915 29.1886 29.6966 28.5869 29.095C27.917 28.4262 27.0001 27.5082 27.0001 25.7727C27.0001 24.0373 27.917 23.1192 28.5869 22.4504C29.1886 21.8488 29.4547 21.554 29.4547 20.8636C29.4547 20.1733 29.1886 19.8785 28.5869 19.2768C27.917 18.608 27.0001 17.69 27.0001 15.9545C27.0001 14.2191 27.917 13.301 28.5869 12.6323C29.1886 12.0306 29.4547 11.7358 29.4547 11.0454C29.4547 10.3551 29.1886 10.0603 28.5869 9.45862C27.917 8.78986 27.0001 7.8718 27.0001 6.13636C27.0001 4.40092 27.917 3.48286 28.5869 2.8141C29.1886 2.21245 29.4547 1.91761 29.4547 1.22727V0H31.9092V1.22727C31.9092 2.96271 30.9924 3.88077 30.3224 4.54954C29.7207 5.15119 29.4547 5.44602 29.4547 6.13636C29.4547 6.8267 29.7207 7.12153 30.3224 7.72318C30.9924 8.39195 31.9092 9.31001 31.9092 11.0454C31.9092 12.7809 30.9924 13.6989 30.3224 14.3677C29.7207 14.9694 29.4547 15.2642 29.4547 15.9545C29.4547 16.6449 29.7207 16.9397 30.3224 17.5414C30.9924 18.2101 31.9092 19.1282 31.9092 20.8636C31.9092 22.5991 30.9924 23.5171 30.3224 24.1859C29.7207 24.7875 29.4547 25.0824 29.4547 25.7727C29.4547 26.4631 29.7207 26.7579 30.3224 27.3595C30.9924 28.0283 31.9092 28.9464 31.9092 30.6818Z" fill="#FDBC34"/>
<path d="M50.7727 17.21C50.0658 17.1225 49.3487 17.2432 48.7094 17.5575C48.9573 17.0593 49.0878 16.511 49.0909 15.9546C49.0909 15.3491 48.9415 14.753 48.6561 14.219C48.3707 13.685 47.958 13.2297 47.4545 12.8933C46.9511 12.5569 46.3725 12.3499 45.7699 12.2906C45.1674 12.2312 44.5595 12.3214 44.0001 12.5531C43.4407 12.7848 42.9471 13.1509 42.563 13.6189C42.1789 14.087 41.9161 14.6425 41.798 15.2363C41.6799 15.8302 41.71 16.444 41.8858 17.0234C42.0615 17.6028 42.3775 18.1299 42.8056 18.5581L31.9091 29.4546L36.8181 34.3637L47.7256 23.4562C48.1395 23.8704 48.6463 24.1796 49.2039 24.3583C49.7615 24.5369 50.3537 24.5797 50.9312 24.4832C51.5087 24.3867 52.0548 24.1536 52.524 23.8033C52.9932 23.4531 53.3719 22.9958 53.6286 22.4695C53.8853 21.9433 54.0126 21.3634 53.9998 20.778C53.9871 20.1926 53.8346 19.6188 53.5552 19.1042C53.2758 18.5897 52.8776 18.1493 52.3936 17.8199C51.9095 17.4904 51.3538 17.2813 50.7727 17.21Z" fill="#FDCF6D"/>
<path d="M37.6859 33.4959L35.9504 31.7605L47.7246 19.9863L49.46 21.7218C49.6486 21.9184 49.8983 22.0452 50.1683 22.0813H50.1923C50.9498 22.0813 51.4603 21.6235 51.5358 21.017C51.5565 20.8566 51.5451 20.6938 51.5023 20.5378C51.4595 20.3819 51.3862 20.236 51.2865 20.1086C51.1883 19.9806 51.0653 19.8737 50.9249 19.7942C50.7844 19.7147 50.6295 19.6643 50.4692 19.6459L50.7736 17.2106C51.2536 17.2702 51.7171 17.4239 52.1377 17.6629C52.5583 17.9018 52.9276 18.2213 53.2246 18.6031C53.5216 18.9849 53.7404 19.4215 53.8685 19.888C53.9966 20.3544 54.0315 20.8415 53.9712 21.3215C53.7255 23.3062 51.8834 24.7348 49.8747 24.5191C49.0604 24.4151 48.3041 24.0422 47.7258 23.4596L47.7246 23.4572L37.6859 33.4959Z" fill="#FDBC34"/>
<path d="M48.7097 17.5581L46.5021 16.4843C46.5979 16.2989 46.6439 16.0919 46.6356 15.8835C46.6273 15.675 46.565 15.4723 46.4548 15.2952C46.3446 15.118 46.1903 14.9726 46.007 14.873C45.8237 14.7735 45.6176 14.7232 45.4091 14.7272V12.2727C46.3852 12.2738 47.3211 12.662 48.0113 13.3523C48.7016 14.0425 49.0898 14.9784 49.0909 15.9545C49.0879 16.5111 48.9575 17.0597 48.7097 17.5581Z" fill="#FDBC34"/>
<path d="M39.2727 19.6364L38.5538 20.3553C38.0035 20.9055 37.3502 21.342 36.6313 21.6398C35.9123 21.9376 35.1418 22.0909 34.3636 22.0909C33.0742 22.0909 31.7975 22.3449 30.6063 22.8383C29.4151 23.3317 28.3328 24.0549 27.4211 24.9666C26.5094 25.8783 25.7862 26.9606 25.2928 28.1518C24.7994 29.343 24.5454 30.6197 24.5454 31.9091C24.5454 33.1984 24.7994 34.4751 25.2928 35.6663C25.7862 36.8575 26.5094 37.9399 27.4211 38.8516C28.3328 39.7633 29.4151 40.4865 30.6063 40.9799C31.7975 41.4733 33.0742 41.7272 34.3636 41.7272C35.6529 41.7272 36.9297 41.4733 38.1208 40.9799C39.312 40.4865 40.3944 39.7633 41.3061 38.8516C42.2178 37.9399 42.941 36.8575 43.4344 35.6663C43.9278 34.4751 44.1818 33.1984 44.1818 31.9091C44.1818 30.3375 44.8061 28.8302 45.9174 27.7189L46.6392 26.9971C46.6384 25.0446 45.8623 23.1724 44.4814 21.7921C43.1006 20.4118 41.228 19.6364 39.2756 19.6364H39.2727Z" fill="#A34E2D"/>
<path d="M39.7618 20.8828C41.215 21.0006 42.5791 21.6311 43.6104 22.6616C44.6418 23.692 45.2734 25.0555 45.3924 26.5086L45.0497 26.8514C44.3837 27.5143 43.8557 28.3025 43.4961 29.1706C43.1365 30.0387 42.9525 30.9695 42.9547 31.9091C42.9519 34.1867 42.0459 36.3702 40.4354 37.9807C38.8249 39.5912 36.6414 40.4972 34.3638 40.5" fill="#A34E2D"/>
<path d="M34.3638 41.7273V39.2728C36.3161 39.2707 38.1878 38.4942 39.5683 37.1137C40.9488 35.7332 41.7253 33.8615 41.7274 31.9092C41.7222 29.7278 42.5724 27.6314 44.0957 26.07C43.8856 25.0187 43.3401 24.0639 42.5412 23.349C41.7422 22.6341 40.7329 22.1977 39.6648 22.1054L39.8589 19.6604C41.5998 19.8096 43.2322 20.5684 44.4683 21.8033C45.7045 23.0381 46.4651 24.6697 46.6161 26.4104L46.6605 26.9761L45.9174 27.7192C45.3655 28.2682 44.9279 28.9211 44.63 29.6404C44.3321 30.3596 44.1798 31.1307 44.1819 31.9092C44.1792 34.5122 43.1439 37.0079 41.3032 38.8486C39.4625 40.6893 36.9669 41.7246 34.3638 41.7273Z" fill="#993B17"/>
<path d="M36.8181 30.6818H34.3636C34.3636 29.9915 34.0975 29.6966 33.4959 29.095C32.8259 28.4262 31.9091 27.5082 31.9091 25.7727C31.9091 24.0373 32.8259 23.1192 33.4959 22.4504C34.0975 21.8488 34.3636 21.554 34.3636 20.8636C34.3636 20.1733 34.0975 19.8785 33.4959 19.2768C32.8259 18.608 31.9091 17.69 31.9091 15.9545C31.9091 14.2191 32.8259 13.301 33.4959 12.6323C34.0975 12.0306 34.3636 11.7358 34.3636 11.0454C34.3636 10.3551 34.0975 10.0603 33.4959 9.45862C32.8259 8.78986 31.9091 7.8718 31.9091 6.13636C31.9091 4.40092 32.8259 3.48286 33.4959 2.8141C34.0975 2.21245 34.3636 1.91761 34.3636 1.22727V0H36.8181V1.22727C36.8181 2.96271 35.9013 3.88077 35.2313 4.54954C34.6297 5.15119 34.3636 5.44602 34.3636 6.13636C34.3636 6.8267 34.6297 7.12153 35.2313 7.72318C35.9013 8.39195 36.8181 9.31001 36.8181 11.0454C36.8181 12.7809 35.9013 13.6989 35.2313 14.3677C34.6297 14.9694 34.3636 15.2642 34.3636 15.9545C34.3636 16.6449 34.6297 16.9397 35.2313 17.5414C35.9013 18.2101 36.8181 19.1282 36.8181 20.8636C36.8181 22.5991 35.9013 23.5171 35.2313 24.1859C34.6297 24.7875 34.3636 25.0824 34.3636 25.7727C34.3636 26.4631 34.6297 26.7579 35.2313 27.3595C35.9013 28.0283 36.8181 28.9464 36.8181 30.6818Z" fill="#FDCF6D"/>
<path d="M54.0001 2.45462L2.45471 4.90913V2.45462L54.0001 0V2.45462Z" fill="#AD6143"/>
<path d="M27 27H0C0 46.6364 14.7273 49.0909 14.7273 49.0909C14.7273 51.5454 17.1818 54 19.6364 54H34.3636C36.8182 54 39.2727 51.5454 39.2727 49.0909C39.2727 49.0909 54 46.6364 54 27H27Z" fill="#C11107"/>
<path d="M34.3638 54H27.0001V51.5454H34.3638C35.4652 51.5454 36.8183 50.1923 36.8183 49.0909L36.8255 47.0223L38.8582 46.6711C39.3424 46.5884 50.3722 44.5258 51.4593 29.4545H49.091V27H54.0217L53.9785 28.268C53.3721 46.471 39.8505 48.9914 39.2752 49.0897L39.2728 49.0957C39.2728 51.5682 36.8411 54 34.3638 54Z" fill="#AF0A00"/>
<path d="M27 49.0909C27 49.0909 41.7272 46.6364 41.7272 27H0C0 46.6364 14.7273 49.0909 14.7273 49.0909C14.7273 51.5454 17.1818 54 19.6364 54H22.0909C24.5454 54 27 51.5454 27 49.0909Z" fill="#C82E25"/>
<path d="M15.1074 46.6663C14.0012 46.4589 4.25016 44.2597 2.67053 30.8256L5.1083 30.538C6.48299 42.2282 14.6328 44.0799 15.5581 44.2525L15.1074 46.6663Z" fill="#D96C66"/>
<path d="M26.9999 49.0909H17.1818V51.5455H26.9999V49.0909Z" fill="#C11107"/>
<path d="M41.7274 27C43.083 27 44.1819 25.9011 44.1819 24.5455C44.1819 23.1899 43.083 22.0909 41.7274 22.0909C40.3718 22.0909 39.2728 23.1899 39.2728 24.5455C39.2728 25.9011 40.3718 27 41.7274 27Z" fill="#993B17"/>
<path d="M30.6819 27.0001C31.3597 27.0001 31.9091 26.4506 31.9091 25.7728C31.9091 25.095 31.3597 24.5455 30.6819 24.5455C30.0041 24.5455 29.4546 25.095 29.4546 25.7728C29.4546 26.4506 30.0041 27.0001 30.6819 27.0001Z" fill="#993B17"/>
</svg>
