<svg width="57" height="56" viewBox="0 0 57 56" fill="none" xmlns="http://www.w3.org/2000/svg">
<path d="M53.0756 55.9497C46.6679 55.9497 40.337 54.5528 34.083 51.759C27.829 48.9652 22.1389 45.0052 17.0126 39.879C11.8864 34.7527 7.92638 29.0626 5.13259 22.8086C2.33879 16.5546 0.941895 10.2237 0.941895 3.81595C0.941895 2.89323 1.24947 2.12429 1.86462 1.50915C2.47976 0.894 3.2487 0.586426 4.17142 0.586426H16.6282C17.3458 0.586426 17.9866 0.829922 18.5505 1.31691C19.1144 1.80391 19.4476 2.38061 19.5501 3.04702L21.5493 13.8121C21.6519 14.6323 21.6262 15.3243 21.4724 15.8882C21.3187 16.4521 21.0367 16.9391 20.6266 17.3492L13.168 24.8848C14.1932 26.7815 15.4107 28.6141 16.8204 30.3826C18.2301 32.1512 19.7808 33.8557 21.4724 35.496C23.0616 37.0852 24.7276 38.559 26.4705 39.9174C28.2134 41.2759 30.0589 42.519 32.0068 43.6468L39.2348 36.4188C39.6962 35.9574 40.2985 35.6114 41.0418 35.3807C41.7851 35.15 42.5156 35.0859 43.2333 35.1885L53.8446 37.3415C54.5623 37.5465 55.1518 37.9182 55.6131 38.4564C56.0745 38.9947 56.3052 39.597 56.3052 40.2634V52.7202C56.3052 53.6429 55.9976 54.4118 55.3825 55.027C54.7673 55.6421 53.9984 55.9497 53.0756 55.9497ZM10.246 19.0409L15.321 13.9659L14.0138 6.7379H7.17026C7.42657 8.83965 7.78541 10.9158 8.24677 12.9663C8.70813 15.0168 9.37454 17.0416 10.246 19.0409ZM37.7739 46.5687C39.7731 47.4402 41.8108 48.1322 43.8869 48.6448C45.963 49.1574 48.0519 49.4907 50.1537 49.6444V42.8778L42.9257 41.4168L37.7739 46.5687Z" fill="#00E6AA"/>
</svg>
