<svg width="122" height="150" viewBox="0 0 122 150" fill="none" xmlns="http://www.w3.org/2000/svg">
<path d="M111.265 73.6167C110.856 56.9645 105.85 42.831 96.2563 31.2163C86.663 19.5885 75.0024 13.5331 61.2746 13.0242V0C69.6297 0.221855 77.4465 2.29685 84.7357 6.22499C92.0249 10.1531 98.3881 15.4124 103.836 22.0158C109.284 28.6193 113.623 36.332 116.864 45.167C120.105 54.0021 121.817 63.4896 122 73.6167H111.255H111.265ZM82.6254 73.6167C82.2162 66.6609 79.9875 60.723 75.9499 55.803C71.9123 50.8831 67.0241 48.1947 61.2853 47.751V34.7268C69.9958 35.1705 77.425 39.1248 83.5513 46.5895C89.6885 54.0543 92.9616 63.059 93.3708 73.6297H82.6254V73.6167ZM114.151 150C100.66 150 87.0936 146.202 73.4735 138.594C59.8533 130.986 47.3314 120.258 35.8969 106.399C24.5163 92.5396 15.6874 77.3752 9.41028 60.8926C3.13316 44.4101 0 27.9929 0 11.6409C0 9.0308 0.721384 6.8514 2.15338 5.08961C3.58539 3.32782 5.37268 2.4404 7.52607 2.4404H30.8795C32.6884 2.4404 34.2819 3.15817 35.66 4.58065C37.0382 6.01618 37.9211 7.77797 38.298 9.87907L42.4001 35.4185C42.6801 37.7936 42.6262 39.8295 42.2171 41.526C41.808 43.2225 41.0866 44.6581 40.0422 45.8196L23.5042 65.3297C26.1636 71.2415 29.2107 76.827 32.6238 82.0994C36.0476 87.3717 39.7407 92.396 43.7352 97.1985C47.6652 101.962 51.8427 106.386 56.268 110.471C60.6932 114.555 65.4736 118.353 70.6095 121.877L86.6845 102.236C87.8043 100.827 89.1609 99.8347 90.7544 99.2605C92.3479 98.6993 94.006 98.5558 95.7179 98.8429L115.604 103.75C117.413 104.324 118.888 105.446 120.03 107.104C121.171 108.761 121.742 110.64 121.742 112.741V140.878C121.742 143.488 121.009 145.654 119.556 147.39C118.102 149.126 116.294 150 114.151 150Z" fill="#00E6AA" fill-opacity="0.06"/>
</svg>
