<svg width="62" height="62" viewBox="0 0 62 62" fill="none" xmlns="http://www.w3.org/2000/svg">
<path d="M6.10352e-05 61.9999L61.9999 42.2726C61.9999 18.9261 43.0738 0 19.7273 0L6.10352e-05 61.9999Z" fill="#F59707"/>
<path d="M32.409 28.1789C31.4837 28.1817 30.5669 28.001 29.7119 27.6472C28.8569 27.2933 28.0805 26.7735 27.4277 26.1176L29.4202 24.1251C31.0164 25.7185 33.8071 25.7185 35.3978 24.1251C36.1891 23.3317 36.6335 22.2568 36.6335 21.1363C36.6335 20.0157 36.1891 18.9408 35.3978 18.1474L37.3904 16.1549C38.3759 17.1399 39.0471 18.395 39.3191 19.7615C39.591 21.128 39.4516 22.5445 38.9183 23.8318C38.385 25.119 37.4819 26.2191 36.3232 26.9929C35.1645 27.7668 33.8023 28.1795 32.409 28.1789Z" fill="#EF7F00"/>
<path d="M58.2807 37.5568L3.47992 54.9628L5.18624 60.3349L59.987 42.9289L58.2807 37.5568Z" fill="#E76400"/>
<path d="M50.7271 42.2727C50.7271 25.1792 36.8206 11.2727 19.7272 11.2727C18.5599 11.271 17.4225 10.904 16.4744 10.2231L14.7345 15.6911C16.281 16.4808 17.9908 16.8979 19.7272 16.9091C33.7135 16.9091 45.0908 28.2877 45.0908 42.2727C45.1019 44.009 45.519 45.7188 46.3088 47.2652L51.7765 45.5255C51.0957 44.5774 50.7288 43.4399 50.7271 42.2727Z" fill="#E76400"/>
<path d="M19.7273 0C18.2324 0 16.7988 0.593828 15.7418 1.65085C14.6848 2.70787 14.0909 4.1415 14.0909 5.63635C14.0909 7.13121 14.6848 8.56483 15.7418 9.62185C16.7988 10.6789 18.2324 11.2727 19.7273 11.2727C36.8481 11.2727 50.7272 25.1518 50.7272 42.2726C50.7272 43.7675 51.3211 45.2011 52.3781 46.2581C53.4351 47.3152 54.8687 47.909 56.3636 47.909C57.8584 47.909 59.2921 47.3152 60.3491 46.2581C61.4061 45.2011 61.9999 43.7675 61.9999 42.2726C61.9999 18.926 43.0739 0 19.7273 0Z" fill="#FDCF6D"/>
<path d="M56.3636 47.9089C59.4765 47.9089 62 45.3855 62 42.2726C62 39.1597 59.4765 36.6362 56.3636 36.6362C53.2508 36.6362 50.7273 39.1597 50.7273 42.2726C50.7273 45.3855 53.2508 47.9089 56.3636 47.9089Z" fill="#FDBC34"/>
<path d="M56.3636 45.0908C57.9201 45.0908 59.1818 43.8291 59.1818 42.2726C59.1818 40.7162 57.9201 39.4545 56.3636 39.4545C54.8072 39.4545 53.5455 40.7162 53.5455 42.2726C53.5455 43.8291 54.8072 45.0908 56.3636 45.0908Z" fill="#FDAB00"/>
<path d="M18.3182 22.5455V16.9091C18.5033 16.9093 18.6867 16.873 18.8578 16.8022C19.0289 16.7315 19.1844 16.6278 19.3154 16.4969C19.4464 16.366 19.5503 16.2106 19.6212 16.0396C19.6921 15.8685 19.7286 15.6852 19.7286 15.5C19.7286 15.3149 19.6921 15.1315 19.6212 14.9605C19.5503 14.7894 19.4464 14.634 19.3154 14.5032C19.1844 14.3723 19.0289 14.2685 18.8578 14.1978C18.6867 14.1271 18.5033 14.0908 18.3182 14.0909V8.45459C20.1867 8.45459 21.9788 9.19687 23.3001 10.5182C24.6213 11.8394 25.3636 13.6315 25.3636 15.5C25.3636 17.3686 24.6213 19.1606 23.3001 20.4819C21.9788 21.8032 20.1867 22.5455 18.3182 22.5455Z" fill="#C82E25"/>
<path d="M12.6819 42.2726C10.8133 42.2726 9.02125 41.5304 7.69998 40.2091C6.3787 38.8878 5.63641 37.0958 5.63641 35.2272C5.63641 33.3586 6.3787 31.5666 7.69998 30.2453C9.02125 28.924 10.8133 28.1818 12.6819 28.1818V33.8181C12.3081 33.8181 11.9497 33.9666 11.6855 34.2308C11.4212 34.4951 11.2728 34.8535 11.2728 35.2272C11.2728 35.6009 11.4212 35.9593 11.6855 36.2236C11.9497 36.4878 12.3081 36.6363 12.6819 36.6363V42.2726Z" fill="#C82E25"/>
<path d="M40.8636 36.6363C38.9956 36.6343 37.2047 35.8914 35.8838 34.5705C34.563 33.2497 33.8201 31.4588 33.8181 29.5908H39.4545C39.4543 29.776 39.4906 29.9594 39.5613 30.1305C39.6321 30.3016 39.7358 30.4571 39.8667 30.5881C39.9976 30.7191 40.153 30.823 40.324 30.8939C40.4951 30.9648 40.6784 31.0013 40.8636 31.0013C41.0487 31.0013 41.2321 30.9648 41.4031 30.8939C41.5741 30.823 41.7295 30.7191 41.8604 30.5881C41.9913 30.4571 42.095 30.3016 42.1658 30.1305C42.2365 29.9594 42.2728 29.776 42.2726 29.5908H47.909C47.907 31.4588 47.1641 33.2497 45.8433 34.5705C44.5224 35.8914 42.7315 36.6343 40.8636 36.6363Z" fill="#C82E25"/>
<path d="M22.5455 42.2698C21.435 42.2732 20.3349 42.0563 19.3088 41.6316C18.2827 41.2069 17.3511 40.5829 16.5679 39.7957L18.5604 37.8031C20.6851 39.9278 24.4059 39.9278 26.5306 37.8031C27.5862 36.7456 28.1791 35.3123 28.1791 33.8181C28.1791 32.3238 27.5862 30.8906 26.5306 29.833L28.5231 27.8405C29.7056 29.0225 30.511 30.5287 30.8373 32.1685C31.1637 33.8083 30.9963 35.5081 30.3564 37.0528C29.7165 38.5975 28.6328 39.9176 27.2424 40.8463C25.852 41.775 24.2175 42.2704 22.5455 42.2698Z" fill="#EF7F00"/>
<path d="M22.5455 39.4545C25.6584 39.4545 28.1819 36.931 28.1819 33.8181C28.1819 30.7052 25.6584 28.1818 22.5455 28.1818C19.4327 28.1818 16.9092 30.7052 16.9092 33.8181C16.9092 36.931 19.4327 39.4545 22.5455 39.4545Z" fill="#8B2800"/>
<path d="M32.409 47.909C34.7437 47.909 36.6363 46.0164 36.6363 43.6817C36.6363 41.3471 34.7437 39.4545 32.409 39.4545C30.0744 39.4545 28.1818 41.3471 28.1818 43.6817C28.1818 46.0164 30.0744 47.909 32.409 47.909Z" fill="#8B2800"/>
<path d="M8.45459 53.5454C10.011 53.5454 11.2728 52.2837 11.2728 50.7272C11.2728 49.1708 10.011 47.9091 8.45459 47.9091C6.89815 47.9091 5.63641 49.1708 5.63641 50.7272C5.63641 52.2837 6.89815 53.5454 8.45459 53.5454Z" fill="#8B2800"/>
<path d="M32.409 25.3636C34.7437 25.3636 36.6363 23.471 36.6363 21.1363C36.6363 18.8017 34.7437 16.9091 32.409 16.9091C30.0744 16.9091 28.1818 18.8017 28.1818 21.1363C28.1818 23.471 30.0744 25.3636 32.409 25.3636Z" fill="#8B2800"/>
<path d="M50.8123 31.6839C50.7875 31.5875 48.0326 21.2299 37.7645 13.5267C30.3998 8.00457 18.2767 7.24911 18.1556 7.24223L18.4803 1.61414C19.0445 1.64716 32.4364 2.48518 41.1441 9.01873C53.08 17.97 56.1542 29.8165 56.278 30.316L50.8123 31.6839Z" fill="#FEE3AA"/>
</svg>
