<svg width="57" height="57" viewBox="0 0 57 57" fill="none" xmlns="http://www.w3.org/2000/svg">
<path d="M28.5483 36.2053L20.79 28.447L11.138 38.099C10.3419 37.2852 9.34595 36.695 8.24986 36.3874C7.15378 36.0799 5.99612 36.0658 4.89289 36.3466C3.78965 36.6274 2.77961 37.1933 1.96398 37.9875C1.14835 38.7817 0.555776 39.7763 0.245652 40.8716C-0.0644716 41.967 -0.0812543 43.1246 0.196986 44.2285C0.475226 45.3324 1.03871 46.3438 1.83098 47.1613C2.62325 47.9788 3.61646 48.5737 4.71109 48.8864C5.80572 49.1991 6.9633 49.2186 8.06784 48.9429C7.93944 49.4282 7.86949 49.927 7.85949 50.4288C7.85948 51.4921 8.12169 52.5389 8.62288 53.4766C9.12408 54.4142 9.84879 55.2138 10.7328 55.8045C11.6169 56.3952 12.6329 56.7588 13.691 56.863C14.7491 56.9672 15.8166 56.8089 16.7989 56.402C17.7812 55.9951 18.6479 55.3523 19.3224 54.5304C19.9969 53.7085 20.4583 52.733 20.6657 51.6902C20.8732 50.6474 20.8202 49.5695 20.5116 48.5521C20.2029 47.5347 19.6481 46.6091 18.8963 45.8572L28.5483 36.2053Z" fill="#FEE3AA"/>
<path d="M16.0567 56.6677C15.0956 56.9315 14.0868 56.9702 13.1084 56.7807C12.13 56.5912 11.2085 56.1786 10.4155 55.5751C9.62253 54.9715 8.97939 54.1932 8.53609 53.3007C8.09279 52.4082 7.86128 51.4254 7.85954 50.4289H13.0317C13.0317 50.7718 13.168 51.1007 13.4105 51.3432C13.653 51.5857 13.9818 51.7219 14.3248 51.7219C14.6677 51.7219 14.9966 51.5857 15.2391 51.3432C15.4816 51.1007 15.6178 50.7718 15.6178 50.4289C15.6195 50.2594 15.5871 50.0914 15.5224 49.9347C15.4578 49.7781 15.3623 49.6361 15.2415 49.5172C14.7608 49.0371 14.3793 48.4669 14.119 47.8393C13.8586 47.2117 13.7245 46.539 13.7243 45.8595C13.724 45.1801 13.8577 44.5073 14.1176 43.8795C14.3775 43.2517 14.7586 42.6813 15.239 42.2009L21.2345 36.2054L18.9616 33.9324L22.6185 30.2755L28.5483 36.2054L18.8959 45.8578C20.5262 47.4847 21.1796 49.8342 20.5585 52.191C20.2631 53.2647 19.6923 54.2425 18.9026 55.0278C18.113 55.813 17.132 56.3783 16.0567 56.6677Z" fill="#FDCF6D"/>
<path d="M10.4456 42.6707C10.4456 43.6995 10.0369 44.6861 9.3094 45.4136C8.58192 46.1411 7.59524 46.5498 6.56643 46.5498C5.53762 46.5498 4.55094 46.1411 3.82346 45.4136C3.09598 44.6861 2.68729 43.6995 2.68729 42.6707" fill="#FEE3AA"/>
<path d="M6.56635 49.1359C4.85228 49.1339 3.20899 48.4521 1.99696 47.24C0.784923 46.028 0.103119 44.3847 0.101105 42.6707H5.2733C5.2733 43.5318 6.19384 44.1784 6.99568 43.8905C7.24752 43.8005 7.46553 43.6351 7.62007 43.4169C7.77461 43.1986 7.85817 42.9381 7.85939 42.6707H13.0316C13.0316 44.3853 12.3504 46.0298 11.138 47.2423C9.92549 48.4547 8.28103 49.1359 6.56635 49.1359Z" fill="#FDCF6D"/>
<path d="M38.8926 6.06172e-07C36.5154 -9.85757e-07 34.1614 0.468237 31.965 1.37798C29.7687 2.28773 27.7731 3.62116 26.0921 5.30215C24.4111 6.98314 23.0777 8.97876 22.1679 11.1751C21.2582 13.3714 20.79 15.7254 20.79 18.1027V25.861L13.0317 33.6193C13.0317 36.3628 14.1215 38.9939 16.0615 40.9338C18.0014 42.8738 20.6325 43.9636 23.376 43.9636L31.1343 36.2053H38.8926C41.2703 36.206 43.6248 35.7382 45.8217 34.8287C48.0185 33.9192 50.0147 32.5859 51.6962 30.9049C53.3777 29.2238 54.7115 27.228 55.6216 25.0313C56.5316 22.8347 57 20.4803 57 18.1027C57 15.725 56.5316 13.3706 55.6216 11.174C54.7115 8.97738 53.3777 6.98154 51.6962 5.30049C50.0147 3.61944 48.0185 2.28611 45.8217 1.37664C43.6248 0.467171 41.2703 -0.000614675 38.8926 6.06172e-07Z" fill="#A34E2D"/>
<path d="M31.1344 18.1027H25.9622C25.9662 14.6746 27.3299 11.388 29.7539 8.96394C32.178 6.53988 35.4646 5.17627 38.8927 5.17224V10.3444C36.8358 10.3467 34.8637 11.1648 33.4092 12.6193C31.9548 14.0737 31.1367 16.0458 31.1344 18.1027Z" fill="#B7745A"/>
<path d="M24.1983 43.1416L20.5414 39.4847L28.9929 31.0332H38.8928C40.5912 31.0337 42.2731 30.6996 43.8423 30.05C45.4116 29.4004 46.8375 28.4481 48.0386 27.2473C49.2398 26.0466 50.1926 24.6209 50.8426 23.0519C51.4927 21.4828 51.8273 19.8011 51.8273 18.1027C51.8273 16.4043 51.4927 14.7225 50.8426 13.1535C50.1926 11.5844 49.2398 10.1588 48.0386 8.95805C46.8375 7.75729 45.4116 6.80492 43.8423 6.15533C42.2731 5.50575 40.5912 5.17167 38.8928 5.17219V0C48.8748 0 56.9955 8.1207 56.9955 18.1027C56.9955 28.0847 48.8748 36.2054 38.8928 36.2054H31.1346L24.1983 43.1416Z" fill="#8B2800"/>
<path d="M42.7718 33.6193C44.9142 33.6193 46.651 31.8825 46.651 29.7401C46.651 27.5977 44.9142 25.861 42.7718 25.861C40.6294 25.861 38.8927 27.5977 38.8927 29.7401C38.8927 31.8825 40.6294 33.6193 42.7718 33.6193Z" fill="#8B2800"/>
<path d="M49.2371 12.9305C50.6653 12.9305 51.8232 11.7727 51.8232 10.3444C51.8232 8.91614 50.6653 7.7583 49.2371 7.7583C47.8088 7.7583 46.651 8.91614 46.651 10.3444C46.651 11.7727 47.8088 12.9305 49.2371 12.9305Z" fill="#8B2800"/>
<path d="M47.944 20.6888C48.6581 20.6888 49.2371 20.1098 49.2371 19.3957C49.2371 18.6816 48.6581 18.1027 47.944 18.1027C47.2299 18.1027 46.651 18.6816 46.651 19.3957C46.651 20.1098 47.2299 20.6888 47.944 20.6888Z" fill="#8B2800"/>
<path d="M28.5483 33.6192C29.9766 33.6192 31.1344 32.4614 31.1344 31.0331C31.1344 29.6049 29.9766 28.447 28.5483 28.447C27.1201 28.447 25.9622 29.6049 25.9622 31.0331C25.9622 32.4614 27.1201 33.6192 28.5483 33.6192Z" fill="#8B2800"/>
<path d="M19.4971 36.2054C20.2112 36.2054 20.7901 35.6264 20.7901 34.9123C20.7901 34.1982 20.2112 33.6193 19.4971 33.6193C18.7829 33.6193 18.204 34.1982 18.204 34.9123C18.204 35.6264 18.7829 36.2054 19.4971 36.2054Z" fill="#8B2800"/>
<path d="M37.5995 20.6888C38.3137 20.6888 38.8926 20.1098 38.8926 19.3957C38.8926 18.6816 38.3137 18.1027 37.5995 18.1027C36.8854 18.1027 36.3065 18.6816 36.3065 19.3957C36.3065 20.1098 36.8854 20.6888 37.5995 20.6888Z" fill="#B7745A"/>
<path d="M31.1343 20.6888C32.5625 20.6888 33.7204 19.531 33.7204 18.1027C33.7204 16.6744 32.5625 15.5166 31.1343 15.5166C29.706 15.5166 28.5482 16.6744 28.5482 18.1027C28.5482 19.531 29.706 20.6888 31.1343 20.6888Z" fill="#B7745A"/>
</svg>
